# Blender 5.0.0
# www.blender.org
mtllib restraints.mtl
o Restraints
v -0.025000 0.011841 0.595972
v -0.025000 0.497869 0.542295
v -0.025000 0.011841 -0.595972
v -0.025000 0.497869 -0.542295
v 0.025000 0.011841 0.595972
v 0.025000 0.497869 0.542295
v 0.025000 0.011841 -0.542295
v 0.025000 0.497869 -0.542295
v -0.025000 0.011841 0.542295
v -0.025000 0.551545 0.595972
v -0.025000 0.551545 -0.595972
v -0.025000 0.011841 -0.542295
v 0.025000 0.011841 -0.595972
v 0.025000 0.551545 -0.595972
v 0.025000 0.551545 0.595972
v 0.025000 0.011841 0.542295
vn -0.0000 -0.0000 1.0000
vn -0.0000 -0.0000 -1.0000
vn -0.0000 -1.0000 -0.0000
vn -0.0000 1.0000 -0.0000
vn -1.0000 -0.0000 -0.0000
vn 1.0000 -0.0000 -0.0000
vt 0.375000 0.238742
vt 0.600136 0.511258
vt 0.600136 0.238742
vt 0.625000 0.250000
vt 0.375000 0.500000
vt 0.375000 0.250000
vt 0.600136 0.738742
vt 0.625000 0.750000
vt 0.375000 1.000000
vt 0.375000 0.750000
vt 0.375000 0.738742
vt 0.600136 0.011258
vt 0.875000 0.500000
vt 0.625000 0.500000
vt 0.375000 0.000000
vt 0.625000 0.000000
vt 0.125000 0.511258
vt 0.375000 0.511258
vt 0.125000 0.750000
vt 0.125000 0.738742
vt 0.625000 1.000000
vt 0.875000 0.750000
vt 0.375000 0.011258
vt 0.125000 0.500000
s 0
usemtl Restraints_NoAO
f 12/1/1 8/2/1 4/3/1
f 11/4/2 13/5/2 3/6/2
f 6/7/3 4/3/3 8/2/3
f 15/8/1 1/9/1 5/10/1
f 16/11/2 2/12/2 6/7/2
f 11/13/4 15/8/4 14/14/4
f 2/12/5 1/15/5 10/16/5
f 4/3/5 10/16/5 11/4/5
f 4/3/5 3/6/5 12/1/5
f 12/17/3 13/5/3 7/18/3
f 8/2/6 13/5/6 14/14/6
f 6/7/6 14/14/6 15/8/6
f 6/7/6 5/10/6 16/11/6
f 16/11/3 1/19/3 9/20/3
f 12/1/1 7/18/1 8/2/1
f 11/4/2 14/14/2 13/5/2
f 6/7/3 2/12/3 4/3/3
f 15/8/1 10/21/1 1/9/1
f 16/11/2 9/20/2 2/12/2
f 11/13/4 10/22/4 15/8/4
f 2/12/5 9/23/5 1/15/5
f 4/3/5 2/12/5 10/16/5
f 4/3/5 11/4/5 3/6/5
f 12/17/3 3/24/3 13/5/3
f 8/2/6 7/18/6 13/5/6
f 6/7/6 8/2/6 14/14/6
f 6/7/6 15/8/6 5/10/6
f 16/11/3 5/10/3 1/19/3
