# Blender 5.0.0
# www.blender.org
o Mask
v -0.320863 0.068629 0.000000
v -0.320863 0.577173 0.000000
v -0.320863 0.068629 -0.333333
v -0.320863 0.577173 -0.333333
v 0.320863 0.068629 0.000000
v 0.320863 0.577173 0.000000
v 0.320863 0.068629 -0.333333
v 0.320863 0.577173 -0.333333
v 0.199357 0.068629 -0.333333
v 0.000000 -0.006130 -0.333333
v -0.199357 0.068629 -0.333333
v -0.199357 0.577173 -0.333333
v 0.000000 0.577173 -0.333333
v 0.199357 0.577173 -0.333333
v -0.199357 0.068629 0.000000
v 0.000000 -0.006130 0.000000
v 0.199357 0.068629 0.000000
v 0.199357 0.577173 0.000000
v 0.000000 0.577173 0.000000
v -0.199357 0.577173 0.000000
v -0.320863 0.068629 -0.300000
v -0.320863 0.068629 -0.266667
v -0.320863 0.068629 -0.233333
v -0.320863 0.068629 -0.200000
v -0.320863 0.068629 -0.166667
v -0.320863 0.068629 -0.133333
v -0.320863 0.068629 -0.100000
v -0.320863 0.068629 -0.066667
v -0.320863 0.068629 -0.033333
v -0.320863 0.577173 -0.033333
v -0.320863 0.577173 -0.066667
v -0.320863 0.577173 -0.100000
v -0.320863 0.577173 -0.133333
v -0.320863 0.577173 -0.166667
v -0.320863 0.577173 -0.200000
v -0.320863 0.577173 -0.233333
v -0.320863 0.577173 -0.266667
v -0.320863 0.577173 -0.300000
v 0.320863 0.068629 -0.033333
v 0.320863 0.068629 -0.066667
v 0.320863 0.068629 -0.100000
v 0.320863 0.068629 -0.133333
v 0.320863 0.068629 -0.166667
v 0.320863 0.068629 -0.200000
v 0.320863 0.068629 -0.233333
v 0.320863 0.068629 -0.266667
v 0.320863 0.068629 -0.300000
v 0.320863 0.577173 -0.300000
v 0.320863 0.577173 -0.266667
v 0.320863 0.577173 -0.233333
v 0.320863 0.577173 -0.200000
v 0.320863 0.577173 -0.166667
v 0.320863 0.577173 -0.133333
v 0.320863 0.577173 -0.100000
v 0.320863 0.577173 -0.066667
v 0.320863 0.577173 -0.033333
v 0.199357 0.577173 -0.300000
v 0.199357 0.577173 -0.266667
v 0.199357 0.577173 -0.233333
v 0.199357 0.577173 -0.200000
v 0.199357 0.577173 -0.166667
v 0.199357 0.577173 -0.133333
v 0.199357 0.577173 -0.100000
v 0.199357 0.577173 -0.066667
v 0.199357 0.577173 -0.033333
v 0.000000 0.577173 -0.300000
v 0.000000 0.577173 -0.266667
v 0.000000 0.577173 -0.233333
v 0.000000 0.577173 -0.200000
v 0.000000 0.577173 -0.166667
v 0.000000 0.577173 -0.133333
v 0.000000 0.577173 -0.100000
v 0.000000 0.577173 -0.066667
v 0.000000 0.577173 -0.033333
v -0.199357 0.577173 -0.300000
v -0.199357 0.577173 -0.266667
v -0.199357 0.577173 -0.233333
v -0.199357 0.577173 -0.200000
v -0.199357 0.577173 -0.166667
v -0.199357 0.577173 -0.133333
v -0.199357 0.577173 -0.100000
v -0.199357 0.577173 -0.066667
v -0.199357 0.577173 -0.033333
v -0.199357 0.068629 -0.300000
v -0.199357 0.068629 -0.266667
v -0.199357 0.068629 -0.233333
v -0.199357 0.068629 -0.200000
v -0.199357 0.068629 -0.166667
v -0.199357 0.068629 -0.133333
v -0.199357 0.068629 -0.100000
v -0.199357 0.068629 -0.066667
v -0.199357 0.068629 -0.033333
v 0.000000 -0.006130 -0.300000
v 0.000000 -0.006130 -0.266667
v 0.000000 -0.006130 -0.233333
v 0.000000 -0.006130 -0.200000
v 0.000000 -0.006130 -0.166667
v 0.000000 -0.006130 -0.133333
v 0.000000 -0.006130 -0.100000
v 0.000000 -0.006130 -0.066667
v 0.000000 -0.006130 -0.033333
v 0.199357 0.068629 -0.300000
v 0.199357 0.068629 -0.266667
v 0.199357 0.068629 -0.233333
v 0.199357 0.068629 -0.200000
v 0.199357 0.068629 -0.166667
v 0.199357 0.068629 -0.133333
v 0.199357 0.068629 -0.100000
v 0.199357 0.068629 -0.066667
v 0.199357 0.068629 -0.033333
vn -1.0000 -0.0000 -0.0000
vn -0.0000 -0.0000 -1.0000
vn 1.0000 -0.0000 -0.0000
vn -0.0000 -0.0000 1.0000
vn -0.0000 -1.0000 -0.0000
vn -0.0000 1.0000 -0.0000
vn -0.3511 -0.9363 -0.0000
vn 0.3511 -0.9363 -0.0000
vt 0.625000 0.225000
vt 0.375000 0.250000
vt 0.375000 0.225000
vt 0.625000 0.437500
vt 0.375000 0.500000
vt 0.375000 0.437500
vt 0.625000 0.725000
vt 0.375000 0.750000
vt 0.375000 0.725000
vt 0.625000 0.937500
vt 0.375000 1.000000
vt 0.375000 0.937500
vt 0.312500 0.750000
vt 0.312500 0.725000
vt 0.875000 0.725000
vt 0.812500 0.750000
vt 0.812500 0.725000
vt 0.687500 0.725000
vt 0.625000 0.750000
vt 0.750000 0.725000
vt 0.687500 0.750000
vt 0.750000 0.750000
vt 0.187500 0.725000
vt 0.125000 0.750000
vt 0.125000 0.725000
vt 0.250000 0.725000
vt 0.187500 0.750000
vt 0.250000 0.750000
vt 0.375000 0.812500
vt 0.625000 0.875000
vt 0.375000 0.875000
vt 0.625000 0.250000
vt 0.375000 0.312500
vt 0.625000 0.375000
vt 0.375000 0.375000
vt 0.312500 0.500000
vt 0.250000 0.525000
vt 0.250000 0.500000
vt 0.312500 0.525000
vt 0.250000 0.550000
vt 0.312500 0.550000
vt 0.250000 0.575000
vt 0.312500 0.575000
vt 0.250000 0.600000
vt 0.312500 0.600000
vt 0.250000 0.625000
vt 0.312500 0.625000
vt 0.250000 0.650000
vt 0.312500 0.650000
vt 0.250000 0.675000
vt 0.312500 0.675000
vt 0.250000 0.700000
vt 0.312500 0.700000
vt 0.187500 0.525000
vt 0.187500 0.500000
vt 0.187500 0.550000
vt 0.187500 0.575000
vt 0.187500 0.600000
vt 0.187500 0.625000
vt 0.187500 0.650000
vt 0.187500 0.675000
vt 0.187500 0.700000
vt 0.125000 0.525000
vt 0.125000 0.500000
vt 0.125000 0.550000
vt 0.125000 0.575000
vt 0.125000 0.600000
vt 0.125000 0.625000
vt 0.125000 0.650000
vt 0.125000 0.675000
vt 0.125000 0.700000
vt 0.812500 0.500000
vt 0.750000 0.525000
vt 0.750000 0.500000
vt 0.812500 0.525000
vt 0.750000 0.550000
vt 0.812500 0.550000
vt 0.750000 0.575000
vt 0.812500 0.575000
vt 0.750000 0.600000
vt 0.812500 0.600000
vt 0.750000 0.625000
vt 0.812500 0.625000
vt 0.750000 0.650000
vt 0.812500 0.650000
vt 0.750000 0.675000
vt 0.812500 0.675000
vt 0.750000 0.700000
vt 0.812500 0.700000
vt 0.687500 0.525000
vt 0.687500 0.500000
vt 0.687500 0.550000
vt 0.687500 0.575000
vt 0.687500 0.600000
vt 0.687500 0.625000
vt 0.687500 0.650000
vt 0.687500 0.675000
vt 0.687500 0.700000
vt 0.625000 0.525000
vt 0.625000 0.500000
vt 0.625000 0.550000
vt 0.625000 0.575000
vt 0.625000 0.600000
vt 0.625000 0.625000
vt 0.625000 0.650000
vt 0.625000 0.675000
vt 0.625000 0.700000
vt 0.875000 0.500000
vt 0.875000 0.525000
vt 0.875000 0.550000
vt 0.875000 0.575000
vt 0.875000 0.600000
vt 0.875000 0.625000
vt 0.875000 0.650000
vt 0.875000 0.675000
vt 0.875000 0.700000
vt 0.375000 0.525000
vt 0.375000 0.550000
vt 0.375000 0.575000
vt 0.375000 0.600000
vt 0.375000 0.625000
vt 0.375000 0.650000
vt 0.375000 0.675000
vt 0.375000 0.700000
vt 0.625000 0.000000
vt 0.375000 0.025000
vt 0.375000 0.000000
vt 0.625000 0.025000
vt 0.375000 0.050000
vt 0.625000 0.050000
vt 0.375000 0.075000
vt 0.625000 0.075000
vt 0.375000 0.100000
vt 0.625000 0.100000
vt 0.375000 0.125000
vt 0.625000 0.125000
vt 0.375000 0.150000
vt 0.625000 0.150000
vt 0.375000 0.175000
vt 0.625000 0.175000
vt 0.375000 0.200000
vt 0.625000 0.200000
vt 0.625000 1.000000
vt 0.875000 0.750000
vt 0.625000 0.812500
vt 0.625000 0.312500
s 0
f 38/1/1 3/2/1 21/3/1
f 14/4/2 7/5/2 9/6/2
f 56/7/3 5/8/3 39/9/3
f 20/10/4 1/11/4 15/12/4
f 39/9/5 17/13/5 110/14/5
f 30/15/6 20/16/6 83/17/6
f 65/18/6 6/19/6 56/7/6
f 74/20/6 18/21/6 65/18/6
f 83/17/6 19/22/6 74/20/6
f 92/23/5 1/24/5 29/25/5
f 101/26/7 15/27/7 92/23/7
f 110/14/8 16/28/8 101/26/8
f 6/19/4 17/29/4 5/8/4
f 17/29/4 19/30/4 16/31/4
f 19/30/4 15/12/4 16/31/4
f 4/32/2 11/33/2 3/2/2
f 11/33/2 13/34/2 10/35/2
f 13/34/2 9/6/2 10/35/2
f 9/36/8 93/37/8 10/38/8
f 102/39/8 94/40/8 93/37/8
f 103/41/8 95/42/8 94/40/8
f 104/43/8 96/44/8 95/42/8
f 105/45/8 97/46/8 96/44/8
f 106/47/8 98/48/8 97/46/8
f 107/49/8 99/50/8 98/48/8
f 108/51/8 100/52/8 99/50/8
f 109/53/8 101/26/8 100/52/8
f 10/38/7 84/54/7 11/55/7
f 93/37/7 85/56/7 84/54/7
f 94/40/7 86/57/7 85/56/7
f 95/42/7 87/58/7 86/57/7
f 96/44/7 88/59/7 87/58/7
f 97/46/7 89/60/7 88/59/7
f 98/48/7 90/61/7 89/60/7
f 99/50/7 91/62/7 90/61/7
f 100/52/7 92/23/7 91/62/7
f 11/55/5 21/63/5 3/64/5
f 84/54/5 22/65/5 21/63/5
f 85/56/5 23/66/5 22/65/5
f 86/57/5 24/67/5 23/66/5
f 87/58/5 25/68/5 24/67/5
f 88/59/5 26/69/5 25/68/5
f 89/60/5 27/70/5 26/69/5
f 90/61/5 28/71/5 27/70/5
f 91/62/5 29/25/5 28/71/5
f 12/72/6 66/73/6 13/74/6
f 75/75/6 67/76/6 66/73/6
f 76/77/6 68/78/6 67/76/6
f 77/79/6 69/80/6 68/78/6
f 78/81/6 70/82/6 69/80/6
f 79/83/6 71/84/6 70/82/6
f 80/85/6 72/86/6 71/84/6
f 81/87/6 73/88/6 72/86/6
f 82/89/6 74/20/6 73/88/6
f 13/74/6 57/90/6 14/91/6
f 66/73/6 58/92/6 57/90/6
f 67/76/6 59/93/6 58/92/6
f 68/78/6 60/94/6 59/93/6
f 69/80/6 61/95/6 60/94/6
f 70/82/6 62/96/6 61/95/6
f 71/84/6 63/97/6 62/96/6
f 72/86/6 64/98/6 63/97/6
f 73/88/6 65/18/6 64/98/6
f 14/91/6 48/99/6 8/100/6
f 57/90/6 49/101/6 48/99/6
f 58/92/6 50/102/6 49/101/6
f 59/93/6 51/103/6 50/102/6
f 60/94/6 52/104/6 51/103/6
f 61/95/6 53/105/6 52/104/6
f 62/96/6 54/106/6 53/105/6
f 63/97/6 55/107/6 54/106/6
f 64/98/6 56/7/6 55/107/6
f 4/108/6 75/75/6 12/72/6
f 38/109/6 76/77/6 75/75/6
f 37/110/6 77/79/6 76/77/6
f 36/111/6 78/81/6 77/79/6
f 35/112/6 79/83/6 78/81/6
f 34/113/6 80/85/6 79/83/6
f 33/114/6 81/87/6 80/85/6
f 32/115/6 82/89/6 81/87/6
f 31/116/6 83/17/6 82/89/6
f 7/5/5 102/39/5 9/36/5
f 47/117/5 103/41/5 102/39/5
f 46/118/5 104/43/5 103/41/5
f 45/119/5 105/45/5 104/43/5
f 44/120/5 106/47/5 105/45/5
f 43/121/5 107/49/5 106/47/5
f 42/122/5 108/51/5 107/49/5
f 41/123/5 109/53/5 108/51/5
f 40/124/5 110/14/5 109/53/5
f 8/100/3 47/117/3 7/5/3
f 48/99/3 46/118/3 47/117/3
f 49/101/3 45/119/3 46/118/3
f 50/102/3 44/120/3 45/119/3
f 51/103/3 43/121/3 44/120/3
f 52/104/3 42/122/3 43/121/3
f 53/105/3 41/123/3 42/122/3
f 54/106/3 40/124/3 41/123/3
f 55/107/3 39/9/3 40/124/3
f 2/125/1 29/126/1 1/127/1
f 30/128/1 28/129/1 29/126/1
f 31/130/1 27/131/1 28/129/1
f 32/132/1 26/133/1 27/131/1
f 33/134/1 25/135/1 26/133/1
f 34/136/1 24/137/1 25/135/1
f 35/138/1 23/139/1 24/137/1
f 36/140/1 22/141/1 23/139/1
f 37/142/1 21/3/1 22/141/1
f 38/1/1 4/32/1 3/2/1
f 14/4/2 8/100/2 7/5/2
f 56/7/3 6/19/3 5/8/3
f 20/10/4 2/143/4 1/11/4
f 39/9/5 5/8/5 17/13/5
f 30/15/6 2/144/6 20/16/6
f 65/18/6 18/21/6 6/19/6
f 74/20/6 19/22/6 18/21/6
f 83/17/6 20/16/6 19/22/6
f 92/23/5 15/27/5 1/24/5
f 101/26/7 16/28/7 15/27/7
f 110/14/8 17/13/8 16/28/8
f 6/19/4 18/145/4 17/29/4
f 17/29/4 18/145/4 19/30/4
f 19/30/4 20/10/4 15/12/4
f 4/32/2 12/146/2 11/33/2
f 11/33/2 12/146/2 13/34/2
f 13/34/2 14/4/2 9/6/2
f 9/36/8 102/39/8 93/37/8
f 102/39/8 103/41/8 94/40/8
f 103/41/8 104/43/8 95/42/8
f 104/43/8 105/45/8 96/44/8
f 105/45/8 106/47/8 97/46/8
f 106/47/8 107/49/8 98/48/8
f 107/49/8 108/51/8 99/50/8
f 108/51/8 109/53/8 100/52/8
f 109/53/8 110/14/8 101/26/8
f 10/38/7 93/37/7 84/54/7
f 93/37/7 94/40/7 85/56/7
f 94/40/7 95/42/7 86/57/7
f 95/42/7 96/44/7 87/58/7
f 96/44/7 97/46/7 88/59/7
f 97/46/7 98/48/7 89/60/7
f 98/48/7 99/50/7 90/61/7
f 99/50/7 100/52/7 91/62/7
f 100/52/7 101/26/7 92/23/7
f 11/55/5 84/54/5 21/63/5
f 84/54/5 85/56/5 22/65/5
f 85/56/5 86/57/5 23/66/5
f 86/57/5 87/58/5 24/67/5
f 87/58/5 88/59/5 25/68/5
f 88/59/5 89/60/5 26/69/5
f 89/60/5 90/61/5 27/70/5
f 90/61/5 91/62/5 28/71/5
f 91/62/5 92/23/5 29/25/5
f 12/72/6 75/75/6 66/73/6
f 75/75/6 76/77/6 67/76/6
f 76/77/6 77/79/6 68/78/6
f 77/79/6 78/81/6 69/80/6
f 78/81/6 79/83/6 70/82/6
f 79/83/6 80/85/6 71/84/6
f 80/85/6 81/87/6 72/86/6
f 81/87/6 82/89/6 73/88/6
f 82/89/6 83/17/6 74/20/6
f 13/74/6 66/73/6 57/90/6
f 66/73/6 67/76/6 58/92/6
f 67/76/6 68/78/6 59/93/6
f 68/78/6 69/80/6 60/94/6
f 69/80/6 70/82/6 61/95/6
f 70/82/6 71/84/6 62/96/6
f 71/84/6 72/86/6 63/97/6
f 72/86/6 73/88/6 64/98/6
f 73/88/6 74/20/6 65/18/6
f 14/91/6 57/90/6 48/99/6
f 57/90/6 58/92/6 49/101/6
f 58/92/6 59/93/6 50/102/6
f 59/93/6 60/94/6 51/103/6
f 60/94/6 61/95/6 52/104/6
f 61/95/6 62/96/6 53/105/6
f 62/96/6 63/97/6 54/106/6
f 63/97/6 64/98/6 55/107/6
f 64/98/6 65/18/6 56/7/6
f 4/108/6 38/109/6 75/75/6
f 38/109/6 37/110/6 76/77/6
f 37/110/6 36/111/6 77/79/6
f 36/111/6 35/112/6 78/81/6
f 35/112/6 34/113/6 79/83/6
f 34/113/6 33/114/6 80/85/6
f 33/114/6 32/115/6 81/87/6
f 32/115/6 31/116/6 82/89/6
f 31/116/6 30/15/6 83/17/6
f 7/5/5 47/117/5 102/39/5
f 47/117/5 46/118/5 103/41/5
f 46/118/5 45/119/5 104/43/5
f 45/119/5 44/120/5 105/45/5
f 44/120/5 43/121/5 106/47/5
f 43/121/5 42/122/5 107/49/5
f 42/122/5 41/123/5 108/51/5
f 41/123/5 40/124/5 109/53/5
f 40/124/5 39/9/5 110/14/5
f 8/100/3 48/99/3 47/117/3
f 48/99/3 49/101/3 46/118/3
f 49/101/3 50/102/3 45/119/3
f 50/102/3 51/103/3 44/120/3
f 51/103/3 52/104/3 43/121/3
f 52/104/3 53/105/3 42/122/3
f 53/105/3 54/106/3 41/123/3
f 54/106/3 55/107/3 40/124/3
f 55/107/3 56/7/3 39/9/3
f 2/125/1 30/128/1 29/126/1
f 30/128/1 31/130/1 28/129/1
f 31/130/1 32/132/1 27/131/1
f 32/132/1 33/134/1 26/133/1
f 33/134/1 34/136/1 25/135/1
f 34/136/1 35/138/1 24/137/1
f 35/138/1 36/140/1 23/139/1
f 36/140/1 37/142/1 22/141/1
f 37/142/1 38/1/1 21/3/1
