# Blender 5.0.0
# www.blender.org
o mask
v 0.303030 0.068520 -0.250000
v 0.303030 0.568520 -0.250000
v 0.303030 0.068520 -0.000000
v 0.303030 0.568520 -0.000000
v -0.303030 0.068520 -0.250000
v -0.303030 0.568520 -0.250000
v -0.303030 0.068520 0.000000
v -0.303030 0.568520 0.000000
v 0.303030 0.068520 -0.027778
v 0.303030 0.068520 -0.055556
v 0.303030 0.068520 -0.083333
v 0.303030 0.068520 -0.111111
v 0.303030 0.068520 -0.138889
v 0.303030 0.068520 -0.166667
v 0.303030 0.068520 -0.194444
v 0.303030 0.068520 -0.222222
v 0.303030 0.568520 -0.222222
v 0.303030 0.568520 -0.194444
v 0.303030 0.568520 -0.166667
v 0.303030 0.568520 -0.138889
v 0.303030 0.568520 -0.111111
v 0.303030 0.568520 -0.083333
v 0.303030 0.568520 -0.055556
v 0.303030 0.568520 -0.027778
v -0.303030 0.068520 -0.222222
v -0.303030 0.068520 -0.194444
v -0.303030 0.068520 -0.166667
v -0.303030 0.068520 -0.138889
v -0.303030 0.068520 -0.111111
v -0.303030 0.068520 -0.083333
v -0.303030 0.068520 -0.055556
v -0.303030 0.068520 -0.027778
v -0.303030 0.568520 -0.027778
v -0.303030 0.568520 -0.055556
v -0.303030 0.568520 -0.083333
v -0.303030 0.568520 -0.111111
v -0.303030 0.568520 -0.138889
v -0.303030 0.568520 -0.166667
v -0.303030 0.568520 -0.194444
v -0.303030 0.568520 -0.222222
v 0.151515 0.068520 -0.000000
v 0.000000 0.030303 0.000000
v -0.151515 0.068520 0.000000
v 0.151515 0.068520 -0.250000
v 0.000000 0.030303 -0.250000
v -0.151515 0.068520 -0.250000
v 0.151515 0.068520 -0.222222
v 0.000000 0.030303 -0.222222
v -0.151515 0.068520 -0.222222
v 0.151515 0.568520 -0.222222
v -0.000000 0.568520 -0.222222
v -0.151515 0.568520 -0.222222
v 0.151515 0.568520 -0.000000
v -0.000000 0.568520 0.000000
v -0.151515 0.568520 0.000000
v 0.151515 0.568520 -0.027778
v -0.000000 0.568520 -0.027778
v -0.151515 0.568520 -0.027778
v 0.151515 0.568520 -0.055556
v -0.000000 0.568520 -0.055556
v -0.151515 0.568520 -0.055556
v 0.151515 0.568520 -0.083333
v -0.000000 0.568520 -0.083333
v -0.151515 0.568520 -0.083333
v 0.151515 0.568520 -0.111111
v -0.000000 0.568520 -0.111111
v -0.151515 0.568520 -0.111111
v 0.151515 0.568520 -0.138889
v -0.000000 0.568520 -0.138889
v -0.151515 0.568520 -0.138889
v 0.151515 0.568520 -0.166667
v -0.000000 0.568520 -0.166667
v -0.151515 0.568520 -0.166667
v 0.151515 0.568520 -0.194444
v -0.000000 0.568520 -0.194444
v -0.151515 0.568520 -0.194444
v 0.151515 0.068520 -0.027778
v 0.000000 0.030303 -0.027778
v -0.151515 0.068520 -0.027778
v 0.151515 0.068520 -0.055556
v 0.000000 0.030303 -0.055556
v -0.151515 0.068520 -0.055556
v 0.151515 0.068520 -0.083333
v 0.000000 0.030303 -0.083333
v -0.151515 0.068520 -0.083333
v 0.151515 0.068520 -0.111111
v 0.000000 0.030303 -0.111111
v -0.151515 0.068520 -0.111111
v 0.151515 0.068520 -0.138889
v 0.000000 0.030303 -0.138889
v -0.151515 0.068520 -0.138889
v 0.151515 0.068520 -0.166667
v 0.000000 0.030303 -0.166667
v -0.151515 0.068520 -0.166667
v 0.151515 0.068520 -0.194444
v 0.000000 0.030303 -0.194444
v -0.151515 0.068520 -0.194444
v 0.151515 0.568520 -0.250000
v -0.000000 0.568520 -0.250000
v -0.151515 0.568520 -0.250000
vn -1.0000 -0.0000 -0.0000
vn -0.0000 1.0000 -0.0000
vn 1.0000 -0.0000 -0.0000
vn 0.1232 -0.9924 -0.0000
vn -0.0000 -1.0000 -0.0000
vn -0.0000 -0.0000 1.0000
vn -0.0000 -0.0000 -1.0000
vn -0.1232 -0.9924 -0.0000
s 1
f 33//1 7//1 8//1
f 73//2 37//2 70//2
f 76//2 38//2 73//2
f 19//3 15//3 18//3
f 92//4 13//5 89//4
f 80//4 11//5 10//5
f 77//4 3//5 41//4
f 36//1 30//1 35//1
f 35//1 31//1 34//1
f 47//4 15//5 95//4
f 44//4 16//5 47//4
f 20//3 14//3 19//3
f 37//1 29//1 36//1
f 40//1 26//1 39//1
f 17//3 1//3 2//3
f 6//1 25//1 40//1
f 34//1 32//1 33//1
f 100//2 40//2 52//2
f 8//6 43//6 55//6
f 4//3 9//3 24//3
f 70//2 36//2 67//2
f 2//7 44//7 98//7
f 67//2 35//2 64//2
f 95//4 14//5 92//4
f 83//4 12//5 11//5
f 18//3 16//3 17//3
f 61//2 33//2 58//2
f 77//4 10//5 9//5
f 58//2 8//2 55//2
f 52//2 39//2 76//2
f 39//1 27//1 38//1
f 38//1 28//1 37//1
f 64//2 34//2 61//2
f 89//4 12//5 86//4
f 21//3 13//3 20//3
f 22//3 12//3 21//3
f 23//3 11//3 22//3
f 24//3 10//3 23//3
f 28//5 88//8 29//5
f 91//8 87//5 88//8
f 90//5 86//4 87//5
f 22//2 59//2 23//2
f 62//2 60//2 59//2
f 63//2 61//2 60//2
f 17//2 74//2 18//2
f 50//2 75//2 74//2
f 51//2 76//2 75//2
f 24//2 53//2 4//2
f 53//2 57//2 54//2
f 54//2 58//2 55//2
f 31//5 79//8 32//5
f 82//8 78//5 79//8
f 81//5 77//4 78//5
f 23//2 56//2 24//2
f 59//2 57//2 56//2
f 60//2 58//2 57//2
f 29//5 85//8 30//5
f 88//8 84//5 85//8
f 87//5 83//4 84//5
f 26//5 94//8 27//5
f 97//8 93//5 94//8
f 96//5 92//4 93//5
f 21//2 62//2 22//2
f 65//2 63//2 62//2
f 66//2 64//2 63//2
f 100//7 5//7 6//7
f 99//7 46//7 100//7
f 99//7 44//7 45//7
f 20//2 65//2 21//2
f 68//2 66//2 65//2
f 69//2 67//2 66//2
f 53//6 3//6 4//6
f 54//6 41//6 53//6
f 54//6 43//6 42//6
f 2//2 50//2 17//2
f 98//2 51//2 50//2
f 99//2 52//2 51//2
f 5//5 49//8 25//5
f 46//8 48//5 49//8
f 45//5 47//4 48//5
f 25//5 97//8 26//5
f 49//8 96//5 97//8
f 48//5 95//4 96//5
f 32//5 43//8 7//5
f 79//8 42//5 43//8
f 78//5 41//4 42//5
f 30//5 82//8 31//5
f 85//8 81//5 82//8
f 84//5 80//4 81//5
f 27//5 91//8 28//5
f 94//8 90//5 91//8
f 93//5 89//4 90//5
f 18//2 71//2 19//2
f 74//2 72//2 71//2
f 75//2 73//2 72//2
f 19//2 68//2 20//2
f 71//2 69//2 68//2
f 72//2 70//2 69//2
f 33//1 32//1 7//1
f 73//2 38//2 37//2
f 76//2 39//2 38//2
f 19//3 14//3 15//3
f 92//4 14//5 13//5
f 80//4 83//4 11//5
f 77//4 9//5 3//5
f 36//1 29//1 30//1
f 35//1 30//1 31//1
f 47//4 16//5 15//5
f 44//4 1//5 16//5
f 20//3 13//3 14//3
f 37//1 28//1 29//1
f 40//1 25//1 26//1
f 17//3 16//3 1//3
f 6//1 5//1 25//1
f 34//1 31//1 32//1
f 100//2 6//2 40//2
f 8//6 7//6 43//6
f 4//3 3//3 9//3
f 70//2 37//2 36//2
f 2//7 1//7 44//7
f 67//2 36//2 35//2
f 95//4 15//5 14//5
f 83//4 86//4 12//5
f 18//3 15//3 16//3
f 61//2 34//2 33//2
f 77//4 80//4 10//5
f 58//2 33//2 8//2
f 52//2 40//2 39//2
f 39//1 26//1 27//1
f 38//1 27//1 28//1
f 64//2 35//2 34//2
f 89//4 13//5 12//5
f 21//3 12//3 13//3
f 22//3 11//3 12//3
f 23//3 10//3 11//3
f 24//3 9//3 10//3
f 28//5 91//8 88//8
f 91//8 90//5 87//5
f 90//5 89//4 86//4
f 22//2 62//2 59//2
f 62//2 63//2 60//2
f 63//2 64//2 61//2
f 17//2 50//2 74//2
f 50//2 51//2 75//2
f 51//2 52//2 76//2
f 24//2 56//2 53//2
f 53//2 56//2 57//2
f 54//2 57//2 58//2
f 31//5 82//8 79//8
f 82//8 81//5 78//5
f 81//5 80//4 77//4
f 23//2 59//2 56//2
f 59//2 60//2 57//2
f 60//2 61//2 58//2
f 29//5 88//8 85//8
f 88//8 87//5 84//5
f 87//5 86//4 83//4
f 26//5 97//8 94//8
f 97//8 96//5 93//5
f 96//5 95//4 92//4
f 21//2 65//2 62//2
f 65//2 66//2 63//2
f 66//2 67//2 64//2
f 100//7 46//7 5//7
f 99//7 45//7 46//7
f 99//7 98//7 44//7
f 20//2 68//2 65//2
f 68//2 69//2 66//2
f 69//2 70//2 67//2
f 53//6 41//6 3//6
f 54//6 42//6 41//6
f 54//6 55//6 43//6
f 2//2 98//2 50//2
f 98//2 99//2 51//2
f 99//2 100//2 52//2
f 5//5 46//8 49//8
f 46//8 45//5 48//5
f 45//5 44//4 47//4
f 25//5 49//8 97//8
f 49//8 48//5 96//5
f 48//5 47//4 95//4
f 32//5 79//8 43//8
f 79//8 78//5 42//5
f 78//5 77//4 41//4
f 30//5 85//8 82//8
f 85//8 84//5 81//5
f 84//5 83//4 80//4
f 27//5 94//8 91//8
f 94//8 93//5 90//5
f 93//5 92//4 89//4
f 18//2 74//2 71//2
f 74//2 75//2 72//2
f 75//2 76//2 73//2
f 19//2 71//2 68//2
f 71//2 72//2 69//2
f 72//2 73//2 70//2
