# Blender 5.0.0
# www.blender.org
mtllib track_alt.mtl
o track_alt
v -0.140000 -0.035000 -0.207500
v -0.123175 -0.030044 -0.046980
v -0.126606 -0.032336 -0.207500
v -0.140000 -0.035000 0.000000
v -0.140000 0.035000 -0.207500
v -0.153394 0.032336 0.000000
v -0.140000 0.035000 0.000000
v -0.153394 0.032336 -0.207500
v -0.115251 -0.024749 -0.207500
v -0.123175 -0.030044 -0.207500
v -0.116393 -0.025512 -0.044449
v -0.164749 -0.024749 -0.207500
v -0.153394 -0.032336 0.000000
v -0.164749 -0.024749 0.000000
v -0.153394 -0.032336 -0.207500
v -0.172336 -0.013394 -0.207500
v -0.175000 0.000000 0.000000
v -0.175000 0.000000 -0.207500
v -0.172336 -0.013394 0.000000
v -0.111806 -0.019593 -0.036397
v -0.108755 -0.015026 -0.037409
v -0.110423 -0.017524 -0.031345
v -0.107664 -0.013394 -0.207500
v -0.111185 -0.018662 0.000000
v -0.110242 -0.017253 -0.002259
v -0.109147 -0.015613 0.000000
v -0.112914 0.021250 -0.015032
v -0.115251 0.024749 0.000000
v -0.111833 0.019632 -0.005540
v -0.109147 0.015613 0.000000
v -0.111833 0.019632 -0.026223
v -0.115251 0.024749 -0.207500
v -0.108755 0.015026 -0.037409
v -0.107664 0.013394 -0.207500
v -0.126606 0.032336 0.000000
v -0.126606 0.032336 -0.207500
v -0.172336 0.013394 0.000000
v -0.172336 0.013394 -0.207500
v -0.105000 0.000000 -0.048275
v -0.106618 -0.008132 -0.044947
v -0.105000 0.000000 -0.207500
v -0.164749 0.024749 0.000000
v -0.164749 0.024749 -0.207500
v -0.106618 0.008132 -0.044947
v -0.143265 -0.034351 -0.005285
v -0.145351 -0.033936 -0.014476
v -0.143265 -0.034351 -0.025790
v 0.153394 0.032336 -0.207500
v 0.140000 0.035000 -0.000000
v 0.153394 0.032336 -0.000000
v 0.140000 0.035000 -0.207500
v 0.143265 -0.034351 -0.005285
v 0.140000 -0.035000 -0.000000
v 0.153394 -0.032336 -0.000000
v 0.145351 -0.033936 -0.014476
v 0.143265 -0.034351 -0.025790
v 0.153394 -0.032336 -0.207500
v 0.137860 -0.034575 -0.036659
v 0.140000 -0.035000 -0.207500
v 0.164749 -0.024749 -0.000000
v 0.164749 -0.024749 -0.207500
v 0.115251 -0.024749 -0.207500
v 0.111833 -0.019632 -0.201960
v 0.112914 -0.021250 -0.192468
v 0.109147 -0.015613 -0.207500
v 0.108755 -0.015026 -0.170091
v 0.107925 -0.013785 -0.015018
v 0.107664 -0.013394 -0.000000
v 0.116393 -0.025512 -0.044449
v 0.108934 -0.015294 -0.025903
v 0.111806 -0.019593 -0.036397
v 0.111833 -0.019632 -0.181277
v 0.108815 -0.015115 -0.006537
v 0.111184 -0.018662 -0.000000
v 0.172336 0.013394 -0.000000
v 0.164749 0.024749 -0.207500
v 0.164749 0.024749 -0.000000
v 0.172336 0.013394 -0.207500
v 0.106618 0.008132 -0.162553
v 0.107664 0.013394 -0.000000
v 0.108755 0.015026 -0.170091
v 0.105000 -0.000000 -0.159225
v 0.105000 -0.000000 -0.000000
v 0.175000 -0.000000 -0.000000
v 0.175000 -0.000000 -0.207500
v 0.126606 0.032336 -0.000000
v 0.126606 0.032336 -0.207500
v 0.172336 -0.013394 -0.207500
v 0.172336 -0.013394 -0.000000
v 0.115251 0.024749 -0.000000
v 0.115251 0.024749 -0.207500
v 0.130751 -0.033160 -0.044186
v 0.123175 -0.030044 -0.207500
v 0.126606 -0.032336 -0.207500
v 0.106618 -0.008132 -0.162553
v 0.112914 0.021250 -0.192468
v 0.111833 0.019632 -0.201960
v 0.109147 0.015613 -0.207500
v 0.111833 0.019632 -0.181277
v 0.013394 -0.282336 -0.207500
v 0.024749 -0.274749 -0.000000
v 0.013394 -0.282336 -0.000000
v 0.024749 -0.274749 -0.207500
v -0.000000 -0.285000 -0.207500
v -0.000000 -0.285000 0.000000
v 0.032336 -0.263394 -0.207500
v 0.032336 -0.263394 -0.000000
v 0.035000 -0.250000 -0.207500
v 0.035000 -0.250000 -0.000000
v -0.016825 -0.219956 -0.160520
v -0.013394 -0.217664 0.000000
v -0.024749 -0.225251 0.000000
v -0.009249 -0.216840 -0.163314
v -0.024178 -0.224870 -0.163669
v -0.024749 -0.274749 -0.207500
v -0.013394 -0.282336 0.000000
v -0.024749 -0.274749 0.000000
v -0.013394 -0.282336 -0.207500
v -0.032336 -0.263394 0.000000
v -0.032336 -0.263394 -0.207500
v -0.032336 -0.236606 -0.207500
v -0.031066 -0.234706 -0.202102
v -0.032075 -0.236215 -0.192482
v -0.028816 -0.231338 -0.207500
v -0.032336 -0.236606 0.000000
v -0.028194 -0.230407 -0.171103
v -0.031066 -0.234706 -0.181597
v 0.016825 -0.219956 -0.160520
v 0.013394 -0.217664 -0.000000
v 0.024749 -0.225251 -0.000000
v 0.023607 -0.224488 -0.163051
v 0.009249 -0.216840 -0.163314
v -0.035000 -0.250000 0.000000
v -0.035000 -0.250000 -0.207500
v -0.000000 -0.215000 -0.207500
v -0.001365 -0.215272 -0.207500
v -0.000000 -0.215000 -0.205332
v -0.000000 -0.215000 0.000000
v -0.001344 -0.215268 -0.172490
v -0.000000 -0.215000 -0.175274
v 0.032336 -0.236606 -0.207500
v 0.032336 -0.236606 -0.000000
v 0.001365 -0.215272 -0.207500
v 0.001344 -0.215268 -0.172490
v 0.028194 -0.230407 -0.171103
v 0.031066 -0.234706 -0.181597
v 0.032075 -0.236215 -0.192482
v 0.031066 -0.234706 -0.202102
v 0.028816 -0.231338 -0.207500
v -0.137078 -0.035972 0.000000
v -0.127367 -0.039203 0.000000
v -0.113176 -0.031256 0.000000
v -0.118974 -0.037547 0.000000
v -0.000000 -0.206509 -0.184615
v -0.106448 -0.019733 -0.029809
v -0.000000 -0.209819 -0.197085
v -0.110857 -0.021288 0.000000
v -0.026824 -0.218744 -0.207500
v -0.021026 -0.212453 -0.207500
v -0.012633 -0.210797 -0.207500
v -0.106405 -0.019632 -0.009804
v -0.000000 -0.209819 -0.176580
v -0.103854 -0.021250 -0.022150
v -0.029143 -0.228712 -0.207500
v -0.002922 -0.214028 -0.207500
v 0.127367 -0.039203 -0.000000
v 0.110857 -0.021288 -0.000000
v 0.118974 -0.037547 -0.000000
v 0.026824 -0.218744 -0.207500
v 0.029143 -0.228712 -0.207500
v 0.137078 -0.035972 -0.000000
v 0.012633 -0.210797 -0.207500
v 0.002922 -0.214028 -0.207500
v 0.113176 -0.031256 -0.000000
v 0.021026 -0.212453 -0.207500
v -0.100268 0.008132 0.000000
v -0.097651 0.000000 0.000000
v -0.100268 -0.008132 0.000000
v 0.097650 -0.000000 -0.207500
v -0.107725 -0.015026 0.000000
v 0.107725 -0.015026 -0.207500
v 0.100268 0.008132 -0.207500
v 0.106687 0.014066 -0.207500
v 0.100268 -0.008132 -0.207500
v 0.107725 0.015026 -0.207500
v -0.107725 0.015026 0.000000
vn 0.9394 -0.1045 0.3265
vn 0.7899 -0.4713 0.3924
vn 0.5089 -0.7950 0.3302
vn -0.4487 -0.7187 0.5312
vn -0.4830 -0.7151 0.5053
vn -0.1044 -0.6893 0.7169
vn 0.2976 -0.5314 0.7932
vn 0.6684 -0.2440 0.7026
vn 0.6436 -0.2711 0.7157
vn 0.2842 -0.5392 0.7927
vn 0.6879 0.6569 -0.3087
vn 0.8520 0.5211 -0.0499
vn 0.6174 0.6854 -0.3860
vn 0.8530 0.0192 0.5216
vn 0.8637 0.0328 0.5029
vn -0.6512 0.2706 -0.7090
vn -0.4947 0.4017 -0.7707
vn -0.2976 0.5314 -0.7932
vn 0.1044 0.6893 -0.7169
vn 0.1074 0.6900 -0.7158
vn 0.4814 0.7153 -0.5065
vn 0.9110 0.1806 0.3708
vn 0.9204 0.2555 0.2959
vn -0.2053 -0.9787 0.0066
vn -0.3146 -0.9460 0.0781
vn -0.2768 -0.9595 0.0531
vn -0.6704 -0.6650 0.3291
vn 0.8856 0.4628 0.0384
vn -0.8432 -0.5331 0.0692
vn -0.8947 -0.4416 -0.0676
vn -0.9203 -0.1882 -0.3430
vn -0.8698 -0.0248 -0.4927
vn -0.8908 -0.1110 -0.4406
vn -0.7478 -0.6223 0.2313
vn -0.1211 -0.6934 0.7103
vn 0.5601 0.7015 -0.4407
vn 0.4763 0.7159 -0.5105
vn 0.5601 0.7014 -0.4407
vn -0.9187 -0.2349 -0.3176
vn 0.1074 -0.6900 0.7158
vn 0.1044 -0.6893 0.7169
vn -0.2998 -0.5301 0.7932
vn -0.9187 0.2230 0.3260
vn -0.8724 0.0458 0.4866
vn -0.9127 0.1137 0.3926
vn -0.8529 0.0197 0.5217
vn -0.2976 -0.5314 0.7932
vn 0.8600 -0.0336 -0.5091
vn 0.6423 0.2712 -0.7169
vn 0.5782 0.3321 -0.7452
vn 0.8593 -0.0320 -0.5105
vn 0.4298 -0.7865 0.4435
vn 0.6393 -0.7057 0.3053
vn 0.3146 -0.9460 0.0781
vn 0.4814 -0.7153 0.5065
vn -0.8520 0.5211 -0.0500
vn -0.7478 0.6223 -0.2313
vn -0.6174 0.6854 -0.3860
vn -0.8947 0.4416 0.0675
vn -0.4814 0.7153 -0.5065
vn -0.1006 0.6919 -0.7150
vn -0.4763 0.7159 -0.5105
vn 0.8432 -0.5331 0.0692
vn 0.8947 -0.4416 -0.0675
vn 0.9150 -0.2083 -0.3456
vn -0.0182 0.6662 -0.7455
vn -0.6436 -0.2711 0.7157
vn -0.6684 -0.2440 0.7026
vn 0.8908 -0.1110 -0.4406
vn 0.9212 -0.3156 -0.2275
vn 0.7478 -0.6223 0.2313
vn -0.5601 0.7015 -0.4407
vn -0.5601 0.7014 -0.4407
vn 0.2958 0.5380 -0.7894
vn -0.9203 0.2556 0.2963
vn 0.5555 0.4376 0.7070
vn 0.5586 0.4271 0.7110
vn 0.6178 -0.0000 0.7863
vn 0.5586 -0.4271 0.7110
vn 0.5555 -0.4376 0.7070
vn 0.0541 0.9962 0.0689
vn -0.0541 0.9962 -0.0689
vn -0.2656 0.9028 -0.3381
vn -0.6178 -0.0000 -0.7863
vn -0.5555 -0.4376 -0.7070
vn -0.1760 0.9585 -0.2240
vn 0.3982 -0.7645 0.5069
vn 0.2997 -0.8744 0.3815
vn 0.3963 -0.7672 0.5043
vn 0.1760 -0.9585 0.2240
vn -0.3982 -0.7645 -0.5069
vn -0.3845 -0.7784 -0.4962
vn -0.5586 0.4271 -0.7110
vn -0.5555 0.4376 -0.7070
vn -0.5137 0.5555 -0.6538
vn 0.2656 0.9028 0.3381
vn 0.1760 0.9585 0.2240
vn -0.5586 -0.4271 -0.7110
vn -0.0541 -0.9962 -0.0689
vn 0.0399 -0.9979 0.0508
vn -0.2282 -0.9264 -0.2994
vn -0.3043 -0.8484 -0.4331
vn -0.2656 -0.9028 -0.3381
vn -0.3432 -0.8315 -0.4369
vn -0.3963 0.7672 -0.5043
vn -0.3983 0.7645 -0.5069
vn -0.3432 0.8315 -0.4369
vn 0.3963 0.7672 0.5043
vn 0.3982 0.7645 0.5069
vn 0.3432 0.8315 0.4369
vn -0.0000 -0.0000 1.0000
vn -0.0000 -0.0000 -1.0000
vn 0.3526 -0.9357 -0.0100
vn -0.0129 -0.9994 0.0322
vn 0.3798 -0.9251 0.0051
vn -0.0000 1.0000 -0.0000
vn -0.3827 0.9239 -0.0000
vn 0.5556 -0.8315 -0.0000
vn 0.7078 -0.7064 0.0017
vn 0.7329 -0.6803 -0.0052
vn -0.7071 -0.7071 -0.0000
vn -0.3827 -0.9239 -0.0000
vn -0.3679 -0.9296 0.0220
vn -0.9239 -0.3827 -0.0000
vn -1.0000 -0.0000 -0.0000
vn 0.8274 -0.5605 -0.0347
vn 0.8574 -0.5145 -0.0105
vn 0.8315 -0.5556 -0.0000
vn 0.9235 -0.3836 0.0016
vn 0.7071 0.7071 -0.0000
vn 0.8315 0.5556 -0.0000
vn 0.8316 0.5554 -0.0000
vn 0.8650 0.5018 0.0007
vn 0.9239 0.3827 -0.0000
vn 0.3827 0.9239 -0.0000
vn -0.9239 0.3827 -0.0000
vn 1.0000 -0.0000 -0.0000
vn 0.9657 -0.2596 0.0022
vn -0.7071 0.7071 -0.0000
vn 0.9657 0.2596 0.0022
vn -0.1951 -0.9808 -0.0000
vn -0.1119 -0.9937 -0.0048
vn 0.1951 -0.9808 -0.0000
vn 0.3827 -0.9239 -0.0000
vn 0.1744 -0.9847 -0.0012
vn 0.3813 -0.9245 0.0023
vn 0.0034 -1.0000 -0.0058
vn 0.0016 -1.0000 0.0025
vn 0.7071 -0.7071 -0.0000
vn -0.8315 -0.5556 -0.0000
vn -0.7049 -0.7093 0.0049
vn -0.8316 -0.5554 -0.0000
vn -0.8617 -0.5074 0.0018
vn -0.9239 -0.3827 -0.0001
vn -0.8315 -0.5555 -0.0000
vn -0.8228 -0.5684 -0.0006
vn -0.6788 -0.7343 -0.0019
vn -0.8247 -0.5656 0.0031
vn -0.9657 0.2596 -0.0022
vn -0.8650 0.5018 -0.0007
vn 0.9239 -0.3827 -0.0000
vn -0.3073 -0.9516 -0.0001
vn -0.5555 -0.8314 0.0099
vn -0.3856 -0.9227 0.0051
vn -0.9657 -0.2596 -0.0022
vn -0.8315 0.5556 -0.0000
vn -0.8316 0.5554 -0.0000
vn -0.0000 -1.0000 -0.0000
vn -0.3827 0.9239 -0.0001
vn -0.4726 0.8813 -0.0025
vn -0.7075 0.7067 -0.0008
vn -0.2583 0.9661 -0.0017
vn -0.7349 0.6782 0.0010
vn -0.8314 0.5556 -0.0000
vn -0.9237 0.3831 -0.0008
vn -0.8267 0.5626 0.0004
vn -0.8315 0.5555 -0.0000
vn 0.4716 0.8818 -0.0025
vn 0.3827 0.9239 -0.0001
vn 0.7078 0.7064 -0.0017
vn 0.7194 0.6946 0.0018
vn 0.2583 0.9661 -0.0017
vn -0.1952 0.9808 -0.0000
vn 0.9235 0.3836 -0.0015
vn 0.1952 0.9808 -0.0000
vn 0.8227 0.5684 0.0007
vn 0.8315 0.5555 -0.0000
vn 0.8314 0.5556 -0.0000
vn 0.8908 0.1110 0.4407
vn -0.8908 0.1110 0.4407
s 1
usemtl Remap1_NoAO
f 24//1 25//2 26//3
f 150//4 126//5 151//6
f 153//7 113//8 152//9
f 113//8 153//7 110//10
f 155//11 154//12 156//13
f 152//9 139//14 157//15
f 139//14 152//9 113//8
f 158//16 2//17 159//18
f 160//19 11//20 20//21
f 161//22 139//14 162//23
f 11//20 160//19 2//17
f 45//24 150//25 4//26
f 45//27 126//5 150//4
f 161//22 162//23 154//12
f 157//15 25//2 24//1
f 25//2 157//15 161//22
f 139//14 161//22 157//15
f 154//12 163//28 161//22
f 46//29 123//30 45//27
f 110//10 153//7 151//6
f 122//31 2//17 164//32
f 122//31 164//32 124//33
f 163//28 154//12 155//11
f 126//5 45//27 127//34
f 127//34 45//27 123//30
f 114//35 151//6 126//5
f 151//6 114//35 110//10
f 155//11 20//21 22//36
f 156//13 20//21 155//11
f 159//18 2//17 160//19
f 123//30 46//29 122//31
f 20//21 165//37 160//19
f 165//37 156//13 137//36
f 165//37 137//36 136//38
f 156//13 165//37 20//21
f 2//17 122//31 47//39
f 47//39 122//31 46//29
f 2//17 158//16 164//32
f 131//40 166//41 128//42
f 73//43 167//44 74//45
f 73//43 144//46 167//44
f 168//47 128//42 166//41
f 58//48 169//49 92//50
f 169//49 58//48 170//51
f 171//52 52//53 53//54
f 145//55 52//53 171//52
f 154//56 70//57 156//58
f 70//57 154//56 67//59
f 145//55 171//52 166//41
f 166//41 131//40 145//55
f 71//60 172//61 173//62
f 55//63 147//64 148//65
f 147//64 55//63 52//53
f 172//61 69//66 92//50
f 144//46 174//67 167//44
f 174//67 144//46 132//68
f 71//60 156//58 70//57
f 58//48 148//65 170//51
f 170//51 148//65 149//69
f 148//65 56//70 55//63
f 52//53 146//71 147//64
f 52//53 145//55 146//71
f 173//62 156//58 71//60
f 156//58 173//62 137//72
f 137//72 173//62 143//73
f 172//61 71//60 69//66
f 132//68 168//47 174//67
f 168//47 132//68 128//42
f 92//50 169//49 175//74
f 162//75 144//46 73//43
f 67//59 154//56 73//43
f 148//65 58//48 56//70
f 92//50 175//74 172//61
f 162//75 73//43 154//56
f 79//76 176//77 82//78
f 177//78 82//78 176//77
f 178//79 95//80 82//78
f 27//81 96//82 97//83
f 179//84 40//85 39//84
f 97//83 31//86 27//81
f 95//80 178//79 180//87
f 82//78 177//78 178//79
f 25//2 180//87 26//3
f 161//88 180//87 25//2
f 161//88 66//89 180//87
f 66//89 161//88 72//90
f 181//91 21//92 40//85
f 182//93 44//94 183//95
f 179//84 44//94 182//93
f 44//94 179//84 39//84
f 29//96 99//97 96//82
f 96//82 27//81 29//96
f 180//87 66//89 95//80
f 40//85 179//84 184//98
f 72//90 161//88 64//99
f 163//100 64//99 161//88
f 21//92 155//101 22//102
f 21//92 63//103 155//101
f 181//91 63//103 21//92
f 63//103 181//91 65//104
f 33//105 183//95 44//94
f 183//95 33//105 185//106
f 97//83 33//105 31//86
f 185//106 97//83 98//107
f 97//83 185//106 33//105
f 40//85 184//98 181//91
f 64//99 163//100 63//103
f 81//108 186//109 79//76
f 186//109 29//96 30//110
f 81//108 29//96 186//109
f 29//96 81//108 99//97
f 155//101 63//103 163//100
f 176//77 79//76 186//109
f 176//111 178//111 177//111
f 176//111 186//111 178//111
f 180//111 178//111 186//111
f 186//111 30//111 180//111
f 26//111 180//111 30//111
f 151//111 24//111 150//111
f 24//111 151//111 152//111
f 152//111 151//111 153//111
f 24//111 4//111 150//111
f 157//111 24//111 152//111
f 166//111 53//111 74//111
f 53//112 166//112 171//112
f 167//111 166//111 74//111
f 174//111 166//111 167//111
f 166//111 174//111 168//111
f 65//112 181//112 98//112
f 183//112 98//112 181//112
f 98//112 183//112 185//112
f 184//112 183//112 181//112
f 184//112 182//112 183//112
f 179//112 182//112 184//112
f 172//112 149//112 143//112
f 149//112 172//112 169//112
f 169//112 172//112 175//112
f 172//112 143//112 173//112
f 160//112 136//112 124//112
f 136//112 160//112 165//112
f 164//112 160//112 124//112
f 158//112 160//112 164//112
f 170//112 149//112 169//112
f 160//112 158//112 159//112
usemtl Remap2_NoAO
f 2//113 1//114 3//115
f 5//116 6//117 7//116
f 6//117 5//116 8//117
f 10//118 2//113 3//115
f 9//119 2//113 10//118
f 2//113 9//119 11//120
f 12//121 13//122 14//121
f 13//122 12//121 15//123
f 16//124 17//125 18//125
f 17//125 16//124 19//124
f 20//126 21//127 22//128
f 21//127 20//126 11//120
f 21//127 11//120 23//129
f 23//129 11//120 9//119
f 28//130 29//131 27//132
f 29//131 28//130 30//131
f 31//131 28//130 27//132
f 28//130 31//131 32//130
f 33//133 32//130 31//131
f 32//130 33//133 34//134
f 32//130 35//135 28//130
f 35//135 32//130 36//135
f 36//135 7//116 35//135
f 7//116 36//135 5//116
f 18//125 37//136 38//136
f 37//136 18//125 17//125
f 12//121 19//124 16//124
f 19//124 12//121 14//121
f 23//129 39//137 40//138
f 23//129 40//138 21//127
f 39//137 23//129 41//137
f 38//136 42//139 43//139
f 42//139 38//136 37//136
f 44//140 34//134 33//133
f 39//137 34//134 44//140
f 34//134 39//137 41//137
f 8//117 42//139 6//117
f 42//139 8//117 43//139
f 45//24 4//26 13//122
f 13//122 46//141 45//24
f 13//122 47//142 46//141
f 15//123 47//142 13//122
f 15//123 2//113 47//142
f 2//113 15//123 1//114
f 48//135 49//116 50//135
f 49//116 48//135 51//116
f 53//143 52//143 54//144
f 55//143 54//144 52//143
f 56//145 54//144 55//143
f 57//146 58//147 59//148
f 58//147 57//146 56//145
f 56//145 57//146 54//144
f 57//146 60//149 54//144
f 60//149 57//146 61//149
f 63//150 62//151 64//152
f 62//151 63//150 65//150
f 66//153 67//150 68//154
f 66//153 70//155 67//150
f 66//153 71//156 70//155
f 69//157 66//153 72//158
f 62//151 72//158 64//152
f 72//158 62//151 69//157
f 66//153 69//157 71//156
f 73//150 68//154 67//150
f 68//154 73//150 74//155
f 75//134 76//130 77//130
f 76//130 75//134 78//134
f 79//159 80//136 81//160
f 82//125 80//136 79//159
f 80//136 82//125 83//125
f 84//137 78//134 75//134
f 78//134 84//137 85//137
f 51//116 86//117 49//116
f 86//117 51//116 87//117
f 60//149 88//161 89//161
f 88//161 60//149 61//149
f 89//161 85//137 84//137
f 85//137 89//161 88//161
f 87//117 90//139 86//117
f 90//139 87//117 91//139
f 62//151 92//162 69//157
f 93//163 92//162 62//151
f 94//164 92//162 93//163
f 59//148 92//162 94//164
f 92//162 59//148 58//147
f 68//154 82//125 95//165
f 68//154 95//165 66//153
f 82//125 68//154 83//125
f 76//130 50//135 77//130
f 50//135 76//130 48//135
f 91//139 97//166 96//167
f 97//166 91//139 98//166
f 99//166 91//139 96//167
f 91//139 99//166 90//139
f 81//160 90//139 99//166
f 90//139 81//160 80//136
f 100//144 101//149 102//144
f 101//149 100//144 103//149
f 104//168 102//144 105//168
f 102//144 104//168 100//144
f 101//149 106//161 107//161
f 106//161 101//149 103//149
f 107//161 108//137 109//137
f 108//137 107//161 106//161
f 111//169 110//170 112//171
f 110//170 111//169 113//172
f 114//173 112//171 110//170
f 115//121 116//122 117//121
f 116//122 115//121 118//122
f 115//121 119//124 120//124
f 119//124 115//121 117//121
f 122//166 121//136 123//174
f 121//136 122//166 124//166
f 125//175 114//173 126//176
f 125//175 126//176 127//177
f 125//175 127//177 123//174
f 114//173 125//175 112//171
f 125//175 123//174 121//136
f 128//178 129//179 130//180
f 130//180 131//181 128//178
f 129//179 128//178 132//182
f 120//124 133//125 134//125
f 133//125 120//124 119//124
f 118//122 105//168 116//122
f 105//168 118//122 104//168
f 135//116 136//183 137//116
f 138//116 113//172 111//169
f 138//116 139//183 113//172
f 139//183 138//116 140//116
f 109//137 141//134 142//184
f 141//134 109//137 108//137
f 143//185 135//116 137//116
f 132//182 138//116 129//179
f 144//185 138//116 132//182
f 138//116 144//185 140//116
f 142//184 131//181 130//180
f 131//181 142//184 145//186
f 145//186 142//184 146//187
f 146//187 142//184 147//188
f 141//134 148//131 147//188
f 148//131 141//134 149//131
f 141//134 147//188 142//184
f 134//125 125//175 121//136
f 125//175 134//125 133//125
f 162//189 139//189 140//189
f 144//190 162//190 140//190
f 30//111 24//111 26//111
f 6//111 24//111 30//111
f 35//111 30//111 28//111
f 7//111 30//111 35//111
f 6//111 30//111 7//111
f 42//111 24//111 6//111
f 24//111 42//111 4//111
f 14//111 4//111 42//111
f 4//111 14//111 13//111
f 37//111 14//111 42//111
f 37//111 19//111 14//111
f 19//111 37//111 17//111
f 75//111 89//111 84//111
f 77//111 89//111 75//111
f 77//111 60//111 89//111
f 50//111 60//111 77//111
f 53//111 60//111 50//111
f 74//111 50//111 49//111
f 60//111 53//111 54//111
f 50//111 74//111 53//111
f 74//111 49//111 86//111
f 74//111 86//111 90//111
f 80//111 74//111 90//111
f 83//111 74//111 80//111
f 74//111 83//111 68//111
f 129//111 109//111 142//111
f 129//111 142//111 130//111
f 109//111 129//111 107//111
f 107//111 129//111 101//111
f 129//111 111//111 101//111
f 129//111 138//111 111//111
f 101//111 111//111 102//111
f 102//111 111//111 105//111
f 105//111 111//111 116//111
f 125//111 111//111 112//111
f 111//111 117//111 116//111
f 133//111 111//111 125//111
f 111//111 119//111 117//111
f 111//111 133//111 119//111
f 88//112 78//112 85//112
f 61//112 78//112 88//112
f 61//112 76//112 78//112
f 93//112 61//112 57//112
f 61//112 93//112 76//112
f 93//112 57//112 59//112
f 76//112 93//112 48//112
f 93//112 59//112 94//112
f 48//112 93//112 51//112
f 98//112 51//112 93//112
f 65//112 93//112 62//112
f 98//112 93//112 65//112
f 51//112 98//112 87//112
f 87//112 98//112 91//112
f 149//112 108//112 106//112
f 108//112 149//112 141//112
f 103//112 149//112 106//112
f 124//112 149//112 103//112
f 124//112 103//112 100//112
f 124//112 100//112 104//112
f 149//112 124//112 143//112
f 143//112 136//112 135//112
f 143//112 124//112 136//112
f 124//112 104//112 118//112
f 124//112 118//112 115//112
f 120//112 124//112 115//112
f 134//112 124//112 120//112
f 124//112 134//112 121//112
f 10//112 41//112 23//112
f 10//112 23//112 9//112
f 41//112 10//112 34//112
f 34//112 10//112 32//112
f 1//112 10//112 3//112
f 10//112 36//112 32//112
f 15//112 10//112 1//112
f 10//112 5//112 36//112
f 12//112 10//112 15//112
f 10//112 8//112 5//112
f 43//112 10//112 12//112
f 10//112 43//112 8//112
f 16//112 43//112 12//112
f 16//112 38//112 43//112
f 38//112 16//112 18//112
