# Blender 5.0.0
# www.blender.org
mtllib track.mtl
o track
v 0.140000 -0.035000 -0.000000
v 0.123175 -0.030044 -0.160520
v 0.126606 -0.032336 -0.000000
v 0.140000 -0.035000 -0.207500
v 0.140000 0.035000 -0.000000
v 0.153394 0.032336 -0.207500
v 0.140000 0.035000 -0.207500
v 0.153394 0.032336 -0.000000
v 0.115251 -0.024749 -0.000000
v 0.123175 -0.030044 -0.000000
v 0.116393 -0.025512 -0.163051
v 0.164749 -0.024749 -0.000000
v 0.153394 -0.032336 -0.207500
v 0.164749 -0.024749 -0.207500
v 0.153394 -0.032336 -0.000000
v 0.172336 -0.013394 -0.000000
v 0.175000 -0.000000 -0.207500
v 0.175000 -0.000000 -0.000000
v 0.172336 -0.013394 -0.207500
v 0.111806 -0.019593 -0.171103
v 0.108755 -0.015026 -0.170091
v 0.110423 -0.017524 -0.176155
v 0.107664 -0.013394 -0.000000
v 0.111184 -0.018662 -0.207500
v 0.110242 -0.017253 -0.205241
v 0.109147 -0.015613 -0.207500
v 0.112914 0.021250 -0.192468
v 0.115251 0.024749 -0.207500
v 0.111833 0.019632 -0.201960
v 0.109147 0.015613 -0.207500
v 0.111833 0.019632 -0.181277
v 0.115251 0.024749 -0.000000
v 0.108755 0.015026 -0.170091
v 0.107664 0.013394 -0.000000
v 0.126606 0.032336 -0.207500
v 0.126606 0.032336 -0.000000
v 0.172336 0.013394 -0.207500
v 0.172336 0.013394 -0.000000
v 0.105000 -0.000000 -0.159225
v 0.106618 -0.008132 -0.162553
v 0.105000 -0.000000 -0.000000
v 0.164749 0.024749 -0.207500
v 0.164749 0.024749 -0.000000
v 0.106618 0.008132 -0.162553
v 0.143265 -0.034351 -0.202215
v 0.145351 -0.033936 -0.193024
v 0.143265 -0.034351 -0.181710
v -0.153394 0.032336 0.000000
v -0.140000 0.035000 -0.207500
v -0.153394 0.032336 -0.207500
v -0.140000 0.035000 0.000000
v -0.143265 -0.034351 -0.202215
v -0.140000 -0.035000 -0.207500
v -0.153394 -0.032336 -0.207500
v -0.145351 -0.033936 -0.193024
v -0.143265 -0.034351 -0.181710
v -0.153394 -0.032336 0.000000
v -0.137860 -0.034575 -0.170841
v -0.140000 -0.035000 0.000000
v -0.164749 -0.024749 -0.207500
v -0.164749 -0.024749 0.000000
v -0.115251 -0.024749 0.000000
v -0.111833 -0.019632 -0.005540
v -0.112914 -0.021250 -0.015032
v -0.109147 -0.015613 0.000000
v -0.108755 -0.015026 -0.037409
v -0.107925 -0.013785 -0.192482
v -0.107664 -0.013394 -0.207500
v -0.116393 -0.025512 -0.163051
v -0.108934 -0.015294 -0.181597
v -0.111806 -0.019593 -0.171103
v -0.111833 -0.019632 -0.026223
v -0.108815 -0.015115 -0.200963
v -0.111184 -0.018662 -0.207500
v -0.172336 0.013394 -0.207500
v -0.164749 0.024749 0.000000
v -0.164749 0.024749 -0.207500
v -0.172336 0.013394 0.000000
v -0.106618 0.008132 -0.044947
v -0.107664 0.013394 -0.207500
v -0.108755 0.015026 -0.037409
v -0.105000 0.000000 -0.048275
v -0.105000 0.000000 -0.207500
v -0.175000 0.000000 -0.207500
v -0.175000 0.000000 0.000000
v -0.126606 0.032336 -0.207500
v -0.126606 0.032336 0.000000
v -0.172336 -0.013394 0.000000
v -0.172336 -0.013394 -0.207500
v -0.115251 0.024749 -0.207500
v -0.115251 0.024749 0.000000
v -0.130751 -0.033160 -0.163314
v -0.123175 -0.030044 0.000000
v -0.126606 -0.032336 0.000000
v -0.106618 -0.008132 -0.044947
v -0.112914 0.021250 -0.015032
v -0.111833 0.019632 -0.005540
v -0.109147 0.015613 0.000000
v -0.111833 0.019632 -0.026223
v -0.013394 -0.282336 0.000000
v -0.024749 -0.274749 -0.207500
v -0.013394 -0.282336 -0.207500
v -0.024749 -0.274749 0.000000
v -0.000000 -0.285000 0.000000
v -0.000000 -0.285000 -0.207500
v -0.032336 -0.263394 0.000000
v -0.032336 -0.263394 -0.207500
v -0.035000 -0.250000 0.000000
v -0.035000 -0.250000 -0.207500
v 0.016825 -0.219956 -0.046980
v 0.013394 -0.217664 -0.207500
v 0.024749 -0.225251 -0.207500
v 0.009249 -0.216840 -0.044186
v 0.024178 -0.224870 -0.043831
v 0.024749 -0.274749 -0.000000
v 0.013394 -0.282336 -0.207500
v 0.024749 -0.274749 -0.207500
v 0.013394 -0.282336 -0.000000
v 0.032336 -0.263394 -0.207500
v 0.032336 -0.263394 -0.000000
v 0.032336 -0.236606 -0.000000
v 0.031066 -0.234706 -0.005398
v 0.032075 -0.236215 -0.015018
v 0.028816 -0.231338 -0.000000
v 0.032336 -0.236606 -0.207500
v 0.028194 -0.230407 -0.036397
v 0.031066 -0.234706 -0.025903
v -0.016825 -0.219956 -0.046980
v -0.013394 -0.217664 -0.207500
v -0.024749 -0.225251 -0.207500
v -0.023607 -0.224488 -0.044449
v -0.009249 -0.216840 -0.044186
v 0.035000 -0.250000 -0.207500
v 0.035000 -0.250000 -0.000000
v -0.000000 -0.215000 0.000000
v 0.001365 -0.215272 -0.000000
v -0.000000 -0.215000 -0.002168
v -0.000000 -0.215000 -0.207500
v 0.001344 -0.215268 -0.035010
v -0.000000 -0.215000 -0.032226
v -0.032336 -0.236606 0.000000
v -0.032336 -0.236606 -0.207500
v -0.001365 -0.215272 0.000000
v -0.001344 -0.215268 -0.035010
v -0.028194 -0.230407 -0.036397
v -0.031066 -0.234706 -0.025903
v -0.032075 -0.236215 -0.015018
v -0.031066 -0.234706 -0.005398
v -0.028816 -0.231338 0.000000
v 0.137078 -0.035972 -0.207500
v 0.127367 -0.039203 -0.207500
v 0.113176 -0.031256 -0.207500
v 0.118974 -0.037547 -0.207500
v -0.000000 -0.206509 -0.022885
v 0.106448 -0.019733 -0.177691
v -0.000000 -0.209819 -0.010415
v 0.110857 -0.021288 -0.207500
v 0.026824 -0.218744 -0.000000
v 0.021026 -0.212453 -0.000000
v 0.012633 -0.210797 -0.000000
v 0.106405 -0.019632 -0.197696
v -0.000000 -0.209819 -0.030920
v 0.103854 -0.021250 -0.185350
v 0.029143 -0.228712 -0.000000
v 0.002922 -0.214028 -0.000000
v -0.127367 -0.039203 -0.207500
v -0.110857 -0.021288 -0.207500
v -0.118974 -0.037547 -0.207500
v -0.026824 -0.218744 0.000000
v -0.029143 -0.228712 0.000000
v -0.137078 -0.035972 -0.207500
v -0.012633 -0.210797 0.000000
v -0.002922 -0.214028 0.000000
v -0.113176 -0.031256 -0.207500
v -0.021026 -0.212453 0.000000
v 0.100268 0.008132 -0.207500
v 0.097650 -0.000000 -0.207500
v 0.100268 -0.008132 -0.207500
v -0.097650 0.000000 0.000000
v 0.107725 -0.015026 -0.207500
v -0.107725 -0.015026 0.000000
v -0.100268 0.008132 0.000000
v -0.106687 0.014066 0.000000
v -0.100268 -0.008132 0.000000
v -0.107725 0.015026 0.000000
v 0.107725 0.015026 -0.207500
vn -0.9394 -0.1046 -0.3264
vn -0.7899 -0.4713 -0.3924
vn -0.5089 -0.7950 -0.3302
vn 0.4487 -0.7187 -0.5312
vn 0.4830 -0.7151 -0.5053
vn 0.1044 -0.6893 -0.7169
vn -0.2976 -0.5314 -0.7932
vn -0.6684 -0.2440 -0.7026
vn -0.6436 -0.2711 -0.7157
vn -0.2842 -0.5392 -0.7927
vn -0.6879 0.6569 0.3087
vn -0.8520 0.5211 0.0499
vn -0.6174 0.6854 0.3860
vn -0.8530 0.0192 -0.5216
vn -0.8638 0.0328 -0.5029
vn 0.6512 0.2706 0.7090
vn 0.4947 0.4017 0.7707
vn 0.2976 0.5314 0.7932
vn -0.1044 0.6893 0.7169
vn -0.1074 0.6900 0.7158
vn -0.4814 0.7153 0.5065
vn -0.9110 0.1806 -0.3708
vn -0.9204 0.2555 -0.2959
vn 0.2053 -0.9787 -0.0066
vn 0.3146 -0.9460 -0.0781
vn 0.2768 -0.9595 -0.0531
vn 0.6704 -0.6650 -0.3291
vn -0.8856 0.4628 -0.0384
vn 0.8432 -0.5331 -0.0692
vn 0.8947 -0.4416 0.0675
vn 0.9203 -0.1882 0.3430
vn 0.8698 -0.0248 0.4927
vn 0.8908 -0.1110 0.4406
vn 0.7478 -0.6223 -0.2313
vn 0.1211 -0.6934 -0.7103
vn -0.5602 0.7014 0.4407
vn -0.4763 0.7159 0.5105
vn -0.5601 0.7015 0.4407
vn -0.5601 0.7014 0.4407
vn 0.9186 -0.2349 0.3176
vn -0.1074 -0.6900 -0.7158
vn -0.1044 -0.6893 -0.7169
vn 0.2998 -0.5301 -0.7932
vn 0.9187 0.2230 -0.3260
vn 0.8724 0.0458 -0.4866
vn 0.9127 0.1138 -0.3926
vn 0.8529 0.0197 -0.5217
vn 0.2976 -0.5314 -0.7932
vn -0.8600 -0.0336 0.5091
vn -0.6423 0.2712 0.7169
vn -0.5782 0.3321 0.7452
vn -0.8593 -0.0320 0.5105
vn -0.4298 -0.7865 -0.4435
vn -0.6393 -0.7057 -0.3053
vn -0.3146 -0.9460 -0.0781
vn -0.4814 -0.7153 -0.5065
vn 0.8520 0.5211 0.0500
vn 0.7478 0.6223 0.2313
vn 0.6174 0.6854 0.3860
vn 0.8947 0.4416 -0.0676
vn 0.4814 0.7153 0.5065
vn 0.1006 0.6919 0.7150
vn 0.4763 0.7159 0.5105
vn -0.8432 -0.5331 -0.0692
vn -0.8947 -0.4416 0.0676
vn -0.9150 -0.2083 0.3456
vn 0.0182 0.6662 0.7455
vn 0.6436 -0.2711 -0.7157
vn 0.6684 -0.2440 -0.7026
vn -0.8908 -0.1110 0.4406
vn -0.9212 -0.3156 0.2275
vn -0.7478 -0.6223 -0.2313
vn 0.5601 0.7015 0.4407
vn 0.5601 0.7014 0.4407
vn -0.2958 0.5380 0.7894
vn 0.9203 0.2556 -0.2963
vn -0.5555 0.4376 -0.7070
vn -0.5586 0.4271 -0.7110
vn -0.6178 -0.0000 -0.7863
vn -0.5586 -0.4271 -0.7110
vn -0.5555 -0.4376 -0.7070
vn -0.0541 0.9962 -0.0689
vn 0.0541 0.9962 0.0689
vn 0.2656 0.9028 0.3381
vn 0.6178 -0.0000 0.7863
vn 0.5555 -0.4376 0.7070
vn 0.1760 0.9585 0.2240
vn -0.3982 -0.7645 -0.5069
vn -0.2997 -0.8744 -0.3815
vn -0.3963 -0.7672 -0.5043
vn -0.1760 -0.9586 -0.2240
vn 0.3982 -0.7645 0.5068
vn 0.3845 -0.7784 0.4962
vn 0.5586 0.4271 0.7110
vn 0.5555 0.4376 0.7070
vn 0.5137 0.5555 0.6538
vn -0.2656 0.9028 -0.3381
vn -0.1760 0.9585 -0.2240
vn 0.5586 -0.4271 0.7110
vn 0.0541 -0.9962 0.0689
vn -0.0399 -0.9979 -0.0508
vn 0.2282 -0.9264 0.2994
vn 0.3043 -0.8484 0.4331
vn 0.2656 -0.9028 0.3381
vn 0.3432 -0.8315 0.4369
vn 0.3963 0.7672 0.5043
vn 0.3983 0.7645 0.5069
vn 0.3432 0.8315 0.4369
vn -0.3963 0.7672 -0.5043
vn -0.3982 0.7645 -0.5068
vn -0.3432 0.8315 -0.4369
vn -0.0000 -0.0000 -1.0000
vn -0.0000 -0.0000 1.0000
vn -0.3526 -0.9357 0.0100
vn 0.0129 -0.9994 -0.0322
vn -0.3798 -0.9251 -0.0051
vn -0.0000 1.0000 -0.0000
vn 0.3827 0.9239 -0.0000
vn -0.5556 -0.8315 -0.0000
vn -0.7078 -0.7064 -0.0017
vn -0.7329 -0.6803 0.0052
vn 0.7071 -0.7071 -0.0000
vn 0.3827 -0.9239 -0.0000
vn 0.3679 -0.9296 -0.0220
vn 0.9239 -0.3827 -0.0000
vn 1.0000 -0.0000 -0.0000
vn -0.8274 -0.5605 0.0347
vn -0.8574 -0.5145 0.0105
vn -0.8315 -0.5556 0.0001
vn -0.9235 -0.3836 -0.0016
vn -0.7071 0.7071 -0.0000
vn -0.8315 0.5556 -0.0000
vn -0.8316 0.5554 -0.0000
vn -0.8650 0.5018 -0.0007
vn -0.9239 0.3827 -0.0000
vn -0.3827 0.9239 -0.0000
vn 0.9239 0.3827 -0.0000
vn -1.0000 -0.0000 -0.0000
vn -0.9657 -0.2596 -0.0022
vn 0.7071 0.7071 -0.0000
vn -0.9657 0.2596 -0.0022
vn 0.1951 -0.9808 -0.0000
vn 0.1119 -0.9937 0.0048
vn -0.1951 -0.9808 -0.0000
vn -0.3827 -0.9239 -0.0000
vn -0.1744 -0.9847 0.0012
vn -0.3813 -0.9245 -0.0023
vn -0.0034 -1.0000 0.0058
vn -0.0016 -1.0000 -0.0025
vn -0.7071 -0.7071 -0.0000
vn 0.8315 -0.5556 -0.0000
vn 0.7049 -0.7093 -0.0049
vn 0.8315 -0.5555 -0.0000
vn 0.8617 -0.5074 -0.0018
vn 0.9239 -0.3827 0.0001
vn 0.8228 -0.5684 0.0006
vn 0.6788 -0.7343 0.0019
vn 0.8247 -0.5656 -0.0031
vn 0.9657 0.2596 0.0022
vn 0.8650 0.5018 0.0007
vn -0.9239 -0.3827 -0.0000
vn 0.3073 -0.9516 0.0001
vn 0.5555 -0.8314 -0.0099
vn 0.3856 -0.9227 -0.0051
vn 0.9657 -0.2596 0.0022
vn 0.8315 0.5556 -0.0000
vn 0.8316 0.5554 -0.0000
vn -0.0000 -1.0000 -0.0000
vn 0.3827 0.9239 0.0001
vn 0.4726 0.8813 0.0025
vn 0.7075 0.7067 0.0008
vn 0.2583 0.9661 0.0017
vn 0.7349 0.6782 -0.0010
vn 0.8314 0.5556 -0.0000
vn 0.9237 0.3831 0.0008
vn 0.8267 0.5626 -0.0004
vn 0.8315 0.5555 -0.0000
vn -0.4716 0.8818 0.0025
vn -0.3827 0.9239 0.0001
vn -0.7078 0.7064 0.0017
vn -0.7194 0.6946 -0.0018
vn -0.2583 0.9661 0.0017
vn 0.1951 0.9808 -0.0003
vn -0.9235 0.3836 0.0015
vn -0.1951 0.9808 -0.0003
vn -0.1952 0.9808 -0.0000
vn -0.8227 0.5684 -0.0007
vn -0.8315 0.5555 -0.0000
vn -0.8314 0.5556 -0.0000
vn -0.8908 0.1110 -0.4407
vn 0.8908 0.1110 -0.4407
s 1
usemtl Remap1_NoAO
f 24//1 25//2 26//3
f 150//4 126//5 151//6
f 153//7 113//8 152//9
f 113//8 153//7 110//10
f 155//11 154//12 156//13
f 152//9 139//14 157//15
f 139//14 152//9 113//8
f 158//16 2//17 159//18
f 160//19 11//20 20//21
f 161//22 139//14 162//23
f 11//20 160//19 2//17
f 45//24 150//25 4//26
f 45//27 126//5 150//4
f 161//22 162//23 154//12
f 157//15 25//2 24//1
f 25//2 157//15 161//22
f 139//14 161//22 157//15
f 154//12 163//28 161//22
f 46//29 123//30 45//27
f 110//10 153//7 151//6
f 122//31 2//17 164//32
f 122//31 164//32 124//33
f 163//28 154//12 155//11
f 126//5 45//27 127//34
f 127//34 45//27 123//30
f 114//35 151//6 126//5
f 151//6 114//35 110//10
f 155//11 20//21 22//36
f 156//13 20//21 155//11
f 159//18 2//17 160//19
f 123//30 46//29 122//31
f 20//21 165//37 160//19
f 165//37 156//13 137//38
f 165//37 137//38 136//39
f 156//13 165//37 20//21
f 2//17 122//31 47//40
f 47//40 122//31 46//29
f 2//17 158//16 164//32
f 131//41 166//42 128//43
f 73//44 167//45 74//46
f 73//44 144//47 167//45
f 168//48 128//43 166//42
f 58//49 169//50 92//51
f 169//50 58//49 170//52
f 171//53 52//54 53//55
f 145//56 52//54 171//53
f 154//57 70//58 156//59
f 70//58 154//57 67//60
f 145//56 171//53 166//42
f 166//42 131//41 145//56
f 71//61 172//62 173//63
f 55//64 147//65 148//66
f 147//65 55//64 52//54
f 172//62 69//67 92//51
f 144//47 174//68 167//45
f 174//68 144//47 132//69
f 71//61 156//59 70//58
f 58//49 148//66 170//52
f 170//52 148//66 149//70
f 148//66 56//71 55//64
f 52//54 146//72 147//65
f 52//54 145//56 146//72
f 173//63 156//59 71//61
f 156//59 173//63 137//73
f 137//73 173//63 143//74
f 172//62 71//61 69//67
f 132//69 168//48 174//68
f 168//48 132//69 128//43
f 92//51 169//50 175//75
f 162//76 144//47 73//44
f 67//60 154//57 73//44
f 148//66 58//49 56//71
f 92//51 175//75 172//62
f 162//76 73//44 154//57
f 79//77 176//78 82//79
f 177//79 82//79 176//78
f 178//80 95//81 82//79
f 27//82 96//83 97//84
f 179//85 40//86 39//85
f 97//84 31//87 27//82
f 95//81 178//80 180//88
f 82//79 177//79 178//80
f 25//2 180//88 26//3
f 161//89 180//88 25//2
f 161//89 66//90 180//88
f 66//90 161//89 72//91
f 181//92 21//93 40//86
f 182//94 44//95 183//96
f 179//85 44//95 182//94
f 44//95 179//85 39//85
f 29//97 99//98 96//83
f 96//83 27//82 29//97
f 180//88 66//90 95//81
f 40//86 179//85 184//99
f 72//91 161//89 64//100
f 163//101 64//100 161//89
f 21//93 155//102 22//103
f 21//93 63//104 155//102
f 181//92 63//104 21//93
f 63//104 181//92 65//105
f 33//106 183//96 44//95
f 183//96 33//106 185//107
f 97//84 33//106 31//87
f 185//107 97//84 98//108
f 97//84 185//107 33//106
f 40//86 184//99 181//92
f 64//100 163//101 63//104
f 81//109 186//110 79//77
f 186//110 29//97 30//111
f 81//109 29//97 186//110
f 29//97 81//109 99//98
f 155//102 63//104 163//101
f 176//78 79//77 186//110
f 176//112 178//112 177//112
f 176//112 186//112 178//112
f 180//112 178//112 186//112
f 186//112 30//112 180//112
f 26//112 180//112 30//112
f 151//112 24//112 150//112
f 24//112 151//112 152//112
f 152//112 151//112 153//112
f 24//112 4//112 150//112
f 157//112 24//112 152//112
f 166//112 53//112 74//112
f 53//113 166//113 171//113
f 167//112 166//112 74//112
f 174//112 166//112 167//112
f 166//112 174//112 168//112
f 65//113 181//113 98//113
f 183//113 98//113 181//113
f 98//113 183//113 185//113
f 184//113 183//113 181//113
f 184//113 182//113 183//113
f 179//113 182//113 184//113
f 172//113 149//113 143//113
f 149//113 172//113 169//113
f 169//113 172//113 175//113
f 172//113 143//113 173//113
f 160//113 136//113 124//113
f 136//113 160//113 165//113
f 164//113 160//113 124//113
f 158//113 160//113 164//113
f 170//113 149//113 169//113
f 160//113 158//113 159//113
usemtl Remap2_NoAO
f 2//114 1//115 3//116
f 5//117 6//118 7//117
f 6//118 5//117 8//118
f 10//119 2//114 3//116
f 9//120 2//114 10//119
f 2//114 9//120 11//121
f 12//122 13//123 14//122
f 13//123 12//122 15//124
f 16//125 17//126 18//126
f 17//126 16//125 19//125
f 20//127 21//128 22//129
f 21//128 20//127 11//121
f 21//128 11//121 23//130
f 23//130 11//121 9//120
f 28//131 29//132 27//133
f 29//132 28//131 30//132
f 31//132 28//131 27//133
f 28//131 31//132 32//131
f 33//134 32//131 31//132
f 32//131 33//134 34//135
f 32//131 35//136 28//131
f 35//136 32//131 36//136
f 36//136 7//117 35//136
f 7//117 36//136 5//117
f 18//126 37//137 38//137
f 37//137 18//126 17//126
f 12//122 19//125 16//125
f 19//125 12//122 14//122
f 23//130 39//138 40//139
f 23//130 40//139 21//128
f 39//138 23//130 41//138
f 38//137 42//140 43//140
f 42//140 38//137 37//137
f 44//141 34//135 33//134
f 39//138 34//135 44//141
f 34//135 39//138 41//138
f 8//118 42//140 6//118
f 42//140 8//118 43//140
f 45//24 4//26 13//123
f 13//123 46//142 45//24
f 13//123 47//143 46//142
f 15//124 47//143 13//123
f 15//124 2//114 47//143
f 2//114 15//124 1//115
f 48//136 49//117 50//136
f 49//117 48//136 51//117
f 53//144 52//144 54//145
f 55//144 54//145 52//144
f 56//146 54//145 55//144
f 57//147 58//148 59//149
f 58//148 57//147 56//146
f 56//146 57//147 54//145
f 57//147 60//150 54//145
f 60//150 57//147 61//150
f 63//151 62//152 64//153
f 62//152 63//151 65//151
f 66//154 67//151 68//155
f 66//154 70//151 67//151
f 66//154 71//156 70//151
f 69//157 66//154 72//158
f 62//152 72//158 64//153
f 72//158 62//152 69//157
f 66//154 69//157 71//156
f 73//151 68//155 67//151
f 68//155 73//151 74//153
f 75//135 76//131 77//131
f 76//131 75//135 78//135
f 79//159 80//137 81//160
f 82//126 80//137 79//159
f 80//137 82//126 83//126
f 84//138 78//135 75//135
f 78//135 84//138 85//138
f 51//117 86//118 49//117
f 86//118 51//117 87//118
f 60//150 88//161 89//161
f 88//161 60//150 61//150
f 89//161 85//138 84//138
f 85//138 89//161 88//161
f 87//118 90//140 86//118
f 90//140 87//118 91//140
f 62//152 92//162 69//157
f 93//163 92//162 62//152
f 94//164 92//162 93//163
f 59//149 92//162 94//164
f 92//162 59//149 58//148
f 68//155 82//126 95//165
f 68//155 95//165 66//154
f 82//126 68//155 83//126
f 76//131 50//136 77//131
f 50//136 76//131 48//136
f 91//140 97//166 96//167
f 97//166 91//140 98//166
f 99//166 91//140 96//167
f 91//140 99//166 90//140
f 81//160 90//140 99//166
f 90//140 81//160 80//137
f 100//145 101//150 102//145
f 101//150 100//145 103//150
f 104//168 102//145 105//168
f 102//145 104//168 100//145
f 101//150 106//161 107//161
f 106//161 101//150 103//150
f 107//161 108//138 109//138
f 108//138 107//161 106//161
f 111//169 110//170 112//171
f 110//170 111//169 113//172
f 114//173 112//171 110//170
f 115//122 116//123 117//122
f 116//123 115//122 118//123
f 115//122 119//125 120//125
f 119//125 115//122 117//122
f 122//166 121//137 123//174
f 121//137 122//166 124//166
f 125//175 114//173 126//176
f 125//175 126//176 127//177
f 125//175 127//177 123//174
f 114//173 125//175 112//171
f 125//175 123//174 121//137
f 128//178 129//179 130//180
f 130//180 131//181 128//178
f 129//179 128//178 132//182
f 120//125 133//126 134//126
f 133//126 120//125 119//125
f 118//123 105//168 116//123
f 105//168 118//123 104//168
f 135//117 136//183 137//117
f 138//117 113//172 111//169
f 138//117 139//183 113//172
f 139//183 138//117 140//117
f 109//138 141//135 142//184
f 141//135 109//138 108//138
f 143//185 135//117 137//117
f 132//182 138//117 129//179
f 144//186 138//117 132//182
f 138//117 144//186 140//117
f 142//184 131//181 130//180
f 131//181 142//184 145//187
f 145//187 142//184 146//188
f 146//188 142//184 147//189
f 141//135 148//132 147//189
f 148//132 141//135 149//132
f 141//135 147//189 142//184
f 134//126 125//175 121//137
f 125//175 134//126 133//126
f 162//190 139//190 140//190
f 144//191 162//191 140//191
f 30//112 24//112 26//112
f 6//112 24//112 30//112
f 35//112 30//112 28//112
f 7//112 30//112 35//112
f 6//112 30//112 7//112
f 42//112 24//112 6//112
f 24//112 42//112 4//112
f 14//112 4//112 42//112
f 4//112 14//112 13//112
f 37//112 14//112 42//112
f 37//112 19//112 14//112
f 19//112 37//112 17//112
f 75//112 89//112 84//112
f 77//112 89//112 75//112
f 77//112 60//112 89//112
f 50//112 60//112 77//112
f 53//112 60//112 50//112
f 74//112 50//112 49//112
f 60//112 53//112 54//112
f 50//112 74//112 53//112
f 74//112 49//112 86//112
f 74//112 86//112 90//112
f 80//112 74//112 90//112
f 83//112 74//112 80//112
f 74//112 83//112 68//112
f 129//112 109//112 142//112
f 129//112 142//112 130//112
f 109//112 129//112 107//112
f 107//112 129//112 101//112
f 129//112 111//112 101//112
f 129//112 138//112 111//112
f 101//112 111//112 102//112
f 102//112 111//112 105//112
f 105//112 111//112 116//112
f 125//112 111//112 112//112
f 111//112 117//112 116//112
f 133//112 111//112 125//112
f 111//112 119//112 117//112
f 111//112 133//112 119//112
f 88//113 78//113 85//113
f 61//113 78//113 88//113
f 61//113 76//113 78//113
f 93//113 61//113 57//113
f 61//113 93//113 76//113
f 93//113 57//113 59//113
f 76//113 93//113 48//113
f 93//113 59//113 94//113
f 48//113 93//113 51//113
f 98//113 51//113 93//113
f 65//113 93//113 62//113
f 98//113 93//113 65//113
f 51//113 98//113 87//113
f 87//113 98//113 91//113
f 149//113 108//113 106//113
f 108//113 149//113 141//113
f 103//113 149//113 106//113
f 124//113 149//113 103//113
f 124//113 103//113 100//113
f 124//113 100//113 104//113
f 149//113 124//113 143//113
f 143//113 136//113 135//113
f 143//113 124//113 136//113
f 124//113 104//113 118//113
f 124//113 118//113 115//113
f 120//113 124//113 115//113
f 134//113 124//113 120//113
f 124//113 134//113 121//113
f 10//113 41//113 23//113
f 10//113 23//113 9//113
f 41//113 10//113 34//113
f 34//113 10//113 32//113
f 1//113 10//113 3//113
f 10//113 36//113 32//113
f 15//113 10//113 1//113
f 10//113 5//113 36//113
f 12//113 10//113 15//113
f 10//113 8//113 5//113
f 43//113 10//113 12//113
f 10//113 43//113 8//113
f 16//113 43//113 12//113
f 16//113 38//113 43//113
f 38//113 16//113 18//113
