# Blender 5.0.0
# www.blender.org
mtllib support_base.mtl
o Support_Base
v -0.500000 -0.394201 0.000000
v -0.500000 -0.331701 -0.062500
v -0.500000 -0.394201 -0.062500
v -0.437500 -0.394201 0.000000
v -0.500000 -0.331701 0.000000
v -0.437500 -0.394201 -0.500000
v -0.437500 -0.331701 -0.437500
v -0.437500 -0.394201 -0.437500
v -0.500000 -0.394201 -0.500000
v -0.437500 -0.331701 -0.500000
v -0.500000 -0.394201 -0.437500
v -0.500000 -0.331701 -0.437500
v -0.437500 -0.331701 -0.250000
v -0.500000 -0.331701 -0.187500
v -0.437500 -0.331701 -0.187500
v -0.500000 -0.394201 -0.250000
v -0.437500 -0.394201 -0.187500
v -0.500000 -0.394201 -0.187500
v -0.500000 -0.394201 -0.312500
v -0.500000 -0.331701 -0.250000
v -0.500000 -0.331701 -0.312500
v -0.437500 -0.394201 -0.062500
v -0.437500 -0.331701 -0.125000
v -0.437500 -0.331701 -0.062500
v -0.500000 -0.394201 -0.125000
v -0.500000 -0.331701 -0.125000
v -0.500000 -0.394201 -0.375000
v -0.437500 -0.331701 -0.375000
v -0.437500 -0.331701 -0.312500
v -0.437500 -0.394201 -0.312500
v -0.437500 -0.394201 -0.375000
v -0.437500 -0.394201 -0.250000
v -0.500000 -0.331701 -0.500000
v -0.437500 -0.331701 0.000000
v -0.500000 -0.331701 -0.375000
v -0.437500 -0.394201 -0.125000
v 0.500000 -0.394201 0.000000
v 0.500000 -0.331701 -0.062500
v 0.500000 -0.394201 -0.062500
v 0.437500 -0.394201 0.000000
v 0.500000 -0.331701 0.000000
v 0.437500 -0.394201 -0.500000
v 0.437500 -0.331701 -0.437500
v 0.437500 -0.394201 -0.437500
v 0.500000 -0.394201 -0.500000
v 0.437500 -0.331701 -0.500000
v 0.500000 -0.394201 -0.437500
v 0.500000 -0.331701 -0.437500
v 0.437500 -0.331701 -0.250000
v 0.500000 -0.331701 -0.187500
v 0.437500 -0.331701 -0.187500
v 0.500000 -0.394201 -0.250000
v 0.437500 -0.394201 -0.187500
v 0.500000 -0.394201 -0.187500
v 0.500000 -0.394201 -0.312500
v 0.500000 -0.331701 -0.250000
v 0.500000 -0.331701 -0.312500
v 0.437500 -0.394201 -0.062500
v 0.437500 -0.331701 -0.125000
v 0.437500 -0.331701 -0.062500
v 0.500000 -0.394201 -0.125000
v 0.500000 -0.331701 -0.125000
v 0.500000 -0.394201 -0.375000
v 0.437500 -0.331701 -0.375000
v 0.437500 -0.331701 -0.312500
v 0.437500 -0.394201 -0.312500
v 0.437500 -0.394201 -0.375000
v 0.437500 -0.394201 -0.250000
v 0.500000 -0.331701 -0.500000
v 0.437500 -0.331701 0.000000
v 0.500000 -0.331701 -0.375000
v 0.437500 -0.394201 -0.125000
vn -0.0000 -0.0000 1.0000
vn -0.0000 1.0000 -0.0000
vn -0.0000 -1.0000 -0.0000
vn -1.0000 -0.0000 -0.0000
vn -0.0000 -0.0000 -1.0000
vn 1.0000 -0.0000 -0.0000
s 1
usemtl Remap2_NoAO_DarkEdge_Wood
f 34//1 1//1 4//1
f 12//2 28//2 7//2
f 36//3 3//3 25//3
f 5//4 3//4 1//4
f 32//3 18//3 16//3
f 6//3 11//3 9//3
f 17//3 25//3 18//3
f 31//3 19//3 27//3
f 21//4 27//4 19//4
f 30//3 16//3 19//3
f 13//2 14//2 15//2
f 16//4 21//4 19//4
f 33//5 6//5 9//5
f 32//6 15//6 17//6
f 2//2 34//2 24//2
f 33//2 7//2 10//2
f 18//4 26//4 14//4
f 35//2 29//2 28//2
f 31//6 29//6 30//6
f 35//4 11//4 27//4
f 24//6 4//6 22//6
f 26//2 24//2 23//2
f 22//3 1//3 3//3
f 21//2 13//2 29//2
f 16//4 14//4 20//4
f 17//6 23//6 36//6
f 12//4 9//4 11//4
f 30//6 13//6 32//6
f 25//4 2//4 26//4
f 14//2 23//2 15//2
f 10//6 8//6 6//6
f 8//3 27//3 11//3
f 36//6 24//6 22//6
f 7//6 31//6 8//6
f 37//1 70//1 40//1
f 64//2 48//2 43//2
f 39//3 72//3 61//3
f 39//6 41//6 37//6
f 54//3 68//3 52//3
f 47//3 42//3 45//3
f 61//3 53//3 54//3
f 55//3 67//3 63//3
f 63//6 57//6 55//6
f 52//3 66//3 55//3
f 49//2 50//2 56//2
f 57//6 52//6 55//6
f 42//5 69//5 45//5
f 51//4 68//4 53//4
f 70//2 38//2 60//2
f 43//2 69//2 46//2
f 54//6 62//6 61//6
f 65//2 71//2 64//2
f 67//4 65//4 64//4
f 47//6 71//6 63//6
f 40//4 60//4 58//4
f 60//2 62//2 59//2
f 37//3 58//3 39//3
f 49//2 57//2 65//2
f 52//6 50//6 54//6
f 59//4 53//4 72//4
f 45//6 48//6 47//6
f 49//4 66//4 68//4
f 61//6 38//6 39//6
f 59//2 50//2 51//2
f 44//4 46//4 42//4
f 63//3 44//3 47//3
f 60//4 72//4 58//4
f 67//4 43//4 44//4
f 34//1 5//1 1//1
f 12//2 35//2 28//2
f 36//3 22//3 3//3
f 5//4 2//4 3//4
f 32//3 17//3 18//3
f 6//3 8//3 11//3
f 17//3 36//3 25//3
f 31//3 30//3 19//3
f 21//4 35//4 27//4
f 30//3 32//3 16//3
f 13//2 20//2 14//2
f 16//4 20//4 21//4
f 33//5 10//5 6//5
f 32//6 13//6 15//6
f 2//2 5//2 34//2
f 33//2 12//2 7//2
f 18//4 25//4 26//4
f 35//2 21//2 29//2
f 31//6 28//6 29//6
f 35//4 12//4 11//4
f 24//6 34//6 4//6
f 26//2 2//2 24//2
f 22//3 4//3 1//3
f 21//2 20//2 13//2
f 16//4 18//4 14//4
f 17//6 15//6 23//6
f 12//4 33//4 9//4
f 30//6 29//6 13//6
f 25//4 3//4 2//4
f 14//2 26//2 23//2
f 10//6 7//6 8//6
f 8//3 31//3 27//3
f 36//6 23//6 24//6
f 7//6 28//6 31//6
f 37//1 41//1 70//1
f 64//2 71//2 48//2
f 39//3 58//3 72//3
f 39//6 38//6 41//6
f 54//3 53//3 68//3
f 47//3 44//3 42//3
f 61//3 72//3 53//3
f 55//3 66//3 67//3
f 63//6 71//6 57//6
f 52//3 68//3 66//3
f 49//2 51//2 50//2
f 57//6 56//6 52//6
f 42//5 46//5 69//5
f 51//4 49//4 68//4
f 70//2 41//2 38//2
f 43//2 48//2 69//2
f 54//6 50//6 62//6
f 65//2 57//2 71//2
f 67//4 66//4 65//4
f 47//6 48//6 71//6
f 40//4 70//4 60//4
f 60//2 38//2 62//2
f 37//3 40//3 58//3
f 49//2 56//2 57//2
f 52//6 56//6 50//6
f 59//4 51//4 53//4
f 45//6 69//6 48//6
f 49//4 65//4 66//4
f 61//6 62//6 38//6
f 59//2 62//2 50//2
f 44//4 43//4 46//4
f 63//3 67//3 44//3
f 60//4 59//4 72//4
f 67//4 64//4 43//4
