# Blender 5.0.0
# www.blender.org
mtllib support_bank_two_thirds.mtl
o Support_Bank_Two_Thirds
v 0.538484 -0.234757 0.015396
v 0.538484 -0.246303 0.018281
v 0.538484 -0.317500 0.015396
v 0.538484 -0.234757 0.038487
v 0.538484 -0.246303 0.038487
v 0.538484 -0.305954 0.018281
v 0.538484 -0.317500 0.038487
v 0.538484 -0.305954 0.038487
v -0.499999 -0.234757 0.015396
v -0.538484 -0.234757 0.015396
v -0.499999 -0.234757 0.031250
v 0.437500 -0.234757 0.015396
v -0.437500 -0.234757 0.015396
v 0.437500 -0.234757 0.031250
v 0.499999 -0.234757 0.031250
v 0.499999 -0.234757 0.015396
v -0.437500 -0.234757 0.031250
v -0.538484 -0.234757 0.038487
v 0.499999 -0.317500 0.031250
v 0.437500 -0.317500 0.031250
v -0.437500 -0.317500 0.031250
v 0.437500 -0.317500 0.015396
v -0.538484 -0.317500 0.038487
v -0.499999 -0.317500 0.031250
v -0.538484 -0.317500 0.015396
v -0.499999 -0.317500 0.015396
v 0.499999 -0.317500 0.015396
v -0.437500 -0.317500 0.015396
v -0.538484 -0.305954 0.018281
v -0.538484 -0.305954 0.038487
v -0.538484 -0.246303 0.018281
v -0.538484 -0.246303 0.038487
v 0.499998 -0.246303 0.018282
v 0.437498 -0.246303 0.018282
v -0.437501 -0.246303 0.018282
v -0.500001 -0.246303 0.018282
v -0.500001 -0.305954 0.018282
v 0.437498 -0.305954 0.018282
v 0.499998 -0.305954 0.018282
v -0.437501 -0.305954 0.018282
v 0.538484 -0.234757 -0.038483
v 0.538484 -0.246303 -0.018277
v 0.538484 -0.246303 -0.038483
v 0.538484 -0.234757 -0.015392
v 0.538484 -0.305954 -0.018277
v 0.538484 -0.317500 -0.038483
v 0.538484 -0.305954 -0.038483
v 0.538484 -0.317500 -0.015392
v 0.499999 -0.234757 -0.031247
v 0.437500 -0.234757 -0.031247
v -0.437500 -0.234757 -0.031247
v 0.437500 -0.234757 -0.015392
v -0.538484 -0.234757 -0.038483
v -0.499999 -0.234757 -0.031247
v -0.538484 -0.234757 -0.015392
v -0.499999 -0.234757 -0.015392
v 0.499999 -0.234757 -0.015392
v -0.437500 -0.234757 -0.015392
v -0.499999 -0.317500 -0.015392
v -0.538484 -0.317500 -0.015392
v -0.499999 -0.317500 -0.031247
v 0.437500 -0.317500 -0.015392
v -0.437500 -0.317500 -0.015392
v 0.437500 -0.317500 -0.031247
v 0.499999 -0.317500 -0.031247
v 0.499999 -0.317500 -0.015392
v -0.437500 -0.317500 -0.031247
v -0.538484 -0.317500 -0.038483
v -0.538484 -0.305954 -0.018277
v -0.538484 -0.305954 -0.038483
v -0.538484 -0.246303 -0.018277
v -0.538484 -0.246303 -0.038483
v -0.499999 -0.246303 -0.018276
v 0.437500 -0.246303 -0.018276
v 0.499999 -0.246303 -0.018276
v -0.437500 -0.246303 -0.018276
v 0.437500 -0.305954 -0.018276
v -0.437500 -0.305954 -0.018276
v -0.499999 -0.305954 -0.018277
v 0.500000 -0.305954 -0.018277
v 0.538484 0.050471 0.015396
v 0.538484 0.038925 0.018281
v 0.538484 -0.032272 0.015396
v 0.538484 0.050471 0.038487
v 0.538484 0.038925 0.038487
v 0.538484 -0.020726 0.018281
v 0.538484 -0.032272 0.038487
v 0.538484 -0.020726 0.038487
v 0.437500 0.050471 0.015396
v 0.364509 0.050471 0.015396
v 0.437500 0.050471 0.031250
v 0.499999 0.050471 0.031250
v 0.499999 0.050471 0.015396
v 0.364509 0.050471 0.038487
v 0.499999 -0.032272 0.031250
v 0.437500 -0.032272 0.031250
v 0.386679 -0.032272 0.038487
v 0.386678 -0.032272 0.015396
v 0.437500 -0.032272 0.015396
v 0.499999 -0.032272 0.015396
v 0.367603 0.038925 0.038487
v 0.383585 -0.020726 0.038487
v 0.499998 0.038925 0.018282
v 0.437498 0.038925 0.018282
v 0.367603 0.038925 0.018281
v 0.383585 -0.020726 0.018281
v 0.437498 -0.020726 0.018282
v 0.499998 -0.020726 0.018282
v 0.538484 0.050471 -0.038483
v 0.538484 0.038925 -0.018277
v 0.538484 0.038925 -0.038483
v 0.538484 0.050471 -0.015392
v 0.538484 -0.020726 -0.018277
v 0.538484 -0.032272 -0.038483
v 0.538484 -0.020726 -0.038483
v 0.538484 -0.032272 -0.015392
v 0.499999 0.050471 -0.031247
v 0.437500 0.050471 -0.031247
v 0.364509 0.050471 -0.038483
v 0.364509 0.050471 -0.015392
v 0.437500 0.050471 -0.015392
v 0.499999 0.050471 -0.015392
v 0.437500 -0.032272 -0.015392
v 0.386678 -0.032272 -0.015392
v 0.437500 -0.032272 -0.031247
v 0.499999 -0.032272 -0.031247
v 0.499999 -0.032272 -0.015392
v 0.386678 -0.032272 -0.038483
v 0.367603 0.038925 -0.038483
v 0.383585 -0.020726 -0.038483
v 0.367603 0.038925 -0.018277
v 0.437500 0.038925 -0.018276
v 0.499999 0.038925 -0.018276
v 0.499999 -0.020726 -0.018276
v 0.437500 -0.020726 -0.018276
v 0.383585 -0.020726 -0.018277
v 0.212974 0.015197 0.015396
v 0.276955 -0.095621 -0.015392
v 0.212974 0.015197 -0.015392
v 0.276955 -0.095621 0.015396
v 0.207308 0.011926 -0.015392
v 0.207308 0.011926 0.015396
v 0.250958 -0.110630 0.015396
v 0.250958 -0.110630 -0.015392
v 0.198041 -0.018976 -0.015392
v 0.198041 -0.018976 0.015396
v 0.218372 -0.007238 -0.015392
v 0.218372 -0.007238 0.015396
v -0.086211 -0.234757 0.015396
v -0.119648 -0.176842 -0.015392
v -0.086211 -0.234757 -0.015392
v -0.119648 -0.176842 0.015396
v -0.113982 -0.173571 0.015396
v -0.113982 -0.173571 -0.015392
v -0.082587 -0.180997 0.015396
v -0.051548 -0.234757 -0.015392
v -0.082587 -0.180997 -0.015392
v -0.051548 -0.234757 0.015396
v -0.102918 -0.192735 -0.015392
v -0.102918 -0.192735 0.015396
v -0.129521 -0.234757 0.015396
v -0.129521 -0.234757 0.038487
v 0.035964 -0.234757 0.038487
v 0.035964 -0.234757 0.015396
v -0.106430 -0.234757 0.038487
v 0.012873 -0.234757 0.038487
v -0.106430 -0.234757 0.018281
v 0.012873 -0.234757 0.018281
v -0.129521 -0.234757 -0.038483
v -0.129521 -0.234757 -0.015392
v 0.035964 -0.234757 -0.015392
v 0.035964 -0.234757 -0.038483
v -0.106430 -0.234757 -0.038483
v 0.012873 -0.234757 -0.038483
v -0.106430 -0.234757 -0.018277
v 0.012873 -0.234757 -0.018277
v 0.499999 0.146683 -0.031247
v 0.499999 0.146683 0.031250
v 0.499999 -0.331703 -0.031247
v 0.499999 -0.331703 0.031250
v 0.437500 0.146683 -0.031247
v 0.437500 0.146683 0.031250
v 0.437500 -0.331703 0.031250
v 0.437500 -0.331703 -0.031247
v -0.437500 -0.138545 -0.031247
v -0.437500 -0.138545 0.031250
v -0.437500 -0.331703 -0.031247
v -0.437500 -0.331703 0.031250
v -0.499999 -0.138545 -0.031247
v -0.499999 -0.138545 0.031250
v -0.499999 -0.331703 0.031250
v -0.499999 -0.331703 -0.031247
v 0.484375 0.146683 -0.015622
v 0.484375 0.146683 0.015626
v 0.453125 0.146683 -0.015622
v 0.453125 0.146683 0.015626
v -0.484375 -0.138545 -0.015622
v -0.484375 -0.138545 0.015626
v -0.453125 -0.138545 0.015626
v -0.453125 -0.138545 -0.015622
vn 1.0000 -0.0000 -0.0000
vn 0.8660 0.5000 -0.0000
vn -1.0000 -0.0000 -0.0000
vn -0.0000 1.0000 -0.0000
vn -0.0000 -0.0000 -1.0000
vn 0.5000 -0.8660 -0.0000
vn -0.0000 -0.0000 1.0000
vn -0.5000 0.8660 -0.0000
vn -0.0000 -1.0000 -0.0000
vn -0.8660 -0.5000 -0.0000
s 1
usemtl Remap2_NoAO_Wood
f 57//1 100//1 16//1
f 177//1 122//1 117//1
f 123//3 12//3 99//3
f 190//3 56//3 9//3
f 93//1 178//1 92//1
f 66//1 179//1 65//1
f 192//5 67//5 187//5
f 27//1 179//1 66//1
f 180//1 27//1 19//1
f 27//1 180//1 179//1
f 184//3 62//3 64//3
f 57//1 126//1 127//1
f 89//3 123//3 99//3
f 184//3 22//3 62//3
f 183//3 22//3 184//3
f 22//3 183//3 20//3
f 56//3 26//3 9//3
f 121//3 181//3 118//3
f 96//3 12//3 14//3
f 93//1 177//1 178//1
f 182//3 89//3 91//3
f 17//7 190//7 11//7
f 15//7 96//7 14//7
f 50//5 126//5 49//5
f 185//1 58//1 51//1
f 13//1 186//1 17//1
f 63//1 187//1 67//1
f 28//1 187//1 63//1
f 188//1 28//1 21//1
f 28//1 188//1 187//1
f 184//9 180//9 183//9
f 192//3 59//3 61//3
f 192//3 26//3 59//3
f 191//3 26//3 192//3
f 26//3 191//3 24//3
f 56//3 189//3 54//3
f 186//1 58//1 185//1
f 190//3 9//3 11//3
f 52//3 125//3 50//3
f 27//1 57//1 16//1
f 22//3 52//3 62//3
f 188//7 24//7 191//7
f 192//9 188//9 191//9
f 184//5 65//5 179//5
f 180//7 20//7 183//7
f 93//1 127//1 122//1
f 89//3 181//3 121//3
f 15//1 100//1 95//1
f 54//5 185//5 51//5
f 118//5 177//5 117//5
f 28//1 58//1 13//1
f 92//7 182//7 91//7
f 57//1 127//1 100//1
f 123//3 52//3 12//3
f 190//3 189//3 56//3
f 192//5 61//5 67//5
f 57//1 49//1 126//1
f 89//3 121//3 123//3
f 56//3 59//3 26//3
f 96//3 99//3 12//3
f 93//1 122//1 177//1
f 17//7 186//7 190//7
f 15//7 95//7 96//7
f 50//5 125//5 126//5
f 184//9 179//9 180//9
f 186//1 13//1 58//1
f 52//3 123//3 125//3
f 27//1 66//1 57//1
f 22//3 12//3 52//3
f 188//7 21//7 24//7
f 192//9 187//9 188//9
f 184//5 64//5 65//5
f 180//7 19//7 20//7
f 93//1 100//1 127//1
f 89//3 182//3 181//3
f 15//1 16//1 100//1
f 54//5 189//5 185//5
f 118//5 181//5 177//5
f 28//1 63//1 58//1
f 92//7 178//7 182//7
usemtl Remap2_NoAO_DarkEdge_Wood
f 182//4 195//4 181//4
f 177//4 194//4 178//4
f 189//4 200//4 185//4
f 190//4 197//4 189//4
f 181//4 193//4 177//4
f 178//4 196//4 182//4
f 185//4 199//4 186//4
f 186//4 198//4 190//4
f 182//4 196//4 195//4
f 177//4 193//4 194//4
f 189//4 197//4 200//4
f 190//4 198//4 197//4
f 181//4 195//4 193//4
f 178//4 194//4 196//4
f 185//4 200//4 199//4
f 186//4 199//4 198//4
usemtl Remap2_NoAO_DarkEdge_Top
f 195//4 194//4 193//4
f 197//4 199//4 200//4
f 195//4 196//4 194//4
f 197//4 198//4 199//4
usemtl Tie_NoAO
f 140//2 139//2 137//2
f 144//6 140//6 143//6
f 167//6 101//6 165//6
f 145//8 148//8 147//8
f 173//6 131//6 175//6
f 7//7 30//7 23//7
f 163//6 98//6 97//6
f 151//5 157//5 156//5
f 48//7 57//7 66//7
f 149//10 150//10 151//10
f 158//2 157//2 155//2
f 1//1 2//1 3//1
f 7//1 6//1 8//1
f 6//1 3//1 2//1
f 45//1 46//1 47//1
f 117//4 112//4 109//4
f 19//9 3//9 7//9
f 14//4 4//4 15//4
f 14//4 17//4 4//4
f 18//4 17//4 11//4
f 17//4 18//4 4//4
f 95//9 83//9 87//9
f 7//9 20//9 19//9
f 7//9 21//9 20//9
f 23//9 21//9 7//9
f 21//9 23//9 24//9
f 55//4 54//4 53//4
f 25//3 29//3 10//3
f 42//1 41//1 44//1
f 31//3 10//3 29//3
f 141//8 137//8 139//8
f 58//4 50//4 51//4
f 151//9 158//9 149//9
f 5//9 33//9 2//9
f 5//9 34//9 33//9
f 5//9 35//9 34//9
f 32//9 35//9 5//9
f 35//9 32//9 36//9
f 31//9 36//9 32//9
f 6//4 39//4 8//4
f 38//4 8//4 39//4
f 38//4 40//4 8//4
f 30//4 40//4 37//4
f 40//4 30//4 8//4
f 30//4 37//4 29//4
f 4//1 2//1 1//1
f 42//1 44//1 45//1
f 69//3 68//3 60//3
f 48//1 45//1 44//1
f 61//9 60//9 68//9
f 41//4 50//4 49//4
f 41//4 51//4 50//4
f 53//4 51//4 41//4
f 51//4 53//4 54//4
f 11//4 10//4 18//4
f 25//9 24//9 23//9
f 49//4 44//4 41//4
f 64//9 46//9 65//9
f 64//9 67//9 46//9
f 68//9 67//9 61//9
f 67//9 68//9 46//9
f 113//1 114//1 115//1
f 69//3 60//3 71//3
f 18//3 31//3 32//3
f 55//3 71//3 60//3
f 14//4 13//4 17//4
f 59//7 55//7 60//7
f 42//9 75//9 43//9
f 74//9 43//9 75//9
f 74//9 76//9 43//9
f 72//9 76//9 73//9
f 76//9 72//9 43//9
f 72//9 73//9 71//9
f 47//4 80//4 45//4
f 47//4 77//4 80//4
f 47//4 78//4 77//4
f 70//4 78//4 47//4
f 78//4 70//4 79//4
f 69//4 79//4 70//4
f 81//1 82//1 83//1
f 110//1 109//1 112//1
f 86//1 83//1 82//1
f 84//1 82//1 81//1
f 167//9 162//9 161//9
f 23//3 29//3 25//3
f 91//4 84//4 92//4
f 91//4 94//4 84//4
f 126//9 116//9 127//9
f 87//9 96//9 95//9
f 97//9 96//9 87//9
f 15//4 1//4 16//4
f 116//7 122//7 127//7
f 97//7 88//7 102//7
f 85//9 103//9 82//9
f 85//9 104//9 103//9
f 101//9 104//9 85//9
f 105//9 104//9 101//9
f 86//4 108//4 88//4
f 107//4 88//4 108//4
f 107//4 102//4 88//4
f 102//4 107//4 106//4
f 71//3 53//3 72//3
f 110//1 112//1 113//1
f 87//1 86//1 88//1
f 116//1 113//1 112//1
f 92//4 81//4 93//4
f 109//4 118//4 117//4
f 119//4 118//4 109//4
f 91//4 90//4 94//4
f 98//9 96//9 97//9
f 65//9 48//9 66//9
f 125//9 114//9 126//9
f 125//9 128//9 114//9
f 101//7 84//7 94//7
f 129//5 109//5 111//5
f 110//9 133//9 111//9
f 132//9 111//9 133//9
f 132//9 129//9 111//9
f 129//9 132//9 131//9
f 115//4 134//4 113//4
f 115//4 135//4 134//4
f 130//4 135//4 115//4
f 136//4 135//4 130//4
f 166//8 106//8 168//8
f 64//9 63//9 67//9
f 100//5 81//5 83//5
f 139//5 147//5 141//5
f 138//5 147//5 139//5
f 120//4 118//4 119//4
f 148//7 137//7 142//7
f 148//7 140//7 137//7
f 144//5 147//5 138//5
f 143//10 145//10 144//10
f 159//8 155//8 157//8
f 149//7 155//7 160//7
f 159//5 150//5 154//5
f 159//5 151//5 150//5
f 152//7 160//7 153//7
f 160//7 152//7 149//7
f 25//5 9//5 26//5
f 28//9 20//9 21//9
f 165//7 94//7 162//7
f 94//7 165//7 101//7
f 163//7 102//7 166//7
f 102//7 163//7 97//7
f 27//5 1//5 3//5
f 173//5 119//5 129//5
f 119//5 173//5 169//5
f 172//5 130//5 128//5
f 130//5 172//5 174//5
f 5//7 18//7 32//7
f 168//9 163//9 166//9
f 171//9 175//9 176//9
f 170//9 175//9 171//9
f 176//9 172//9 171//9
f 169//9 175//9 170//9
f 125//9 124//9 128//9
f 167//9 164//9 168//9
f 167//9 161//9 164//9
f 176//8 130//8 174//8
f 172//6 124//6 171//6
f 160//2 154//2 153//2
f 143//7 148//7 146//7
f 162//8 90//8 161//8
f 170//8 119//8 169//8
f 72//5 41//5 43//5
f 148//10 141//10 147//10
f 152//8 154//8 150//8
f 68//5 47//5 46//5
f 115//5 128//5 130//5
f 140//2 138//2 139//2
f 144//6 138//6 140//6
f 167//6 105//6 101//6
f 145//8 146//8 148//8
f 173//6 129//6 131//6
f 7//7 8//7 30//7
f 163//6 164//6 98//6
f 151//5 159//5 157//5
f 48//7 44//7 57//7
f 149//10 152//10 150//10
f 158//2 156//2 157//2
f 7//1 3//1 6//1
f 45//1 48//1 46//1
f 117//4 122//4 112//4
f 19//9 27//9 3//9
f 95//9 100//9 83//9
f 55//4 56//4 54//4
f 42//1 43//1 41//1
f 141//8 142//8 137//8
f 58//4 52//4 50//4
f 151//9 156//9 158//9
f 4//1 5//1 2//1
f 69//3 70//3 68//3
f 61//9 59//9 60//9
f 11//4 9//4 10//4
f 25//9 26//9 24//9
f 49//4 57//4 44//4
f 113//1 116//1 114//1
f 18//3 10//3 31//3
f 14//4 12//4 13//4
f 59//7 56//7 55//7
f 110//1 111//1 109//1
f 84//1 85//1 82//1
f 167//9 165//9 162//9
f 23//3 30//3 29//3
f 126//9 114//9 116//9
f 15//4 4//4 1//4
f 116//7 112//7 122//7
f 97//7 87//7 88//7
f 71//3 55//3 53//3
f 87//1 83//1 86//1
f 92//4 84//4 81//4
f 91//4 89//4 90//4
f 98//9 99//9 96//9
f 65//9 46//9 48//9
f 101//7 85//7 84//7
f 129//5 119//5 109//5
f 166//8 102//8 106//8
f 64//9 62//9 63//9
f 100//5 93//5 81//5
f 120//4 121//4 118//4
f 144//5 145//5 147//5
f 143//10 146//10 145//10
f 159//8 160//8 155//8
f 149//7 158//7 155//7
f 25//5 10//5 9//5
f 28//9 22//9 20//9
f 27//5 16//5 1//5
f 5//7 4//7 18//7
f 168//9 164//9 163//9
f 176//9 174//9 172//9
f 169//9 173//9 175//9
f 125//9 123//9 124//9
f 176//8 136//8 130//8
f 172//6 128//6 124//6
f 160//2 159//2 154//2
f 143//7 140//7 148//7
f 162//8 94//8 90//8
f 170//8 120//8 119//8
f 72//5 53//5 41//5
f 148//10 142//10 141//10
f 152//8 153//8 154//8
f 68//5 70//5 47//5
f 115//5 114//5 128//5
usemtl TieDark_NoAO
f 78//5 74//5 77//5
f 106//7 104//7 105//7
f 6//7 33//7 39//7
f 134//5 132//5 133//5
f 40//7 34//7 35//7
f 77//5 75//5 80//5
f 113//5 133//5 110//5
f 37//7 35//7 36//7
f 86//7 103//7 108//7
f 69//5 73//5 79//5
f 136//5 132//5 135//5
f 108//7 104//7 107//7
f 168//7 105//7 167//7
f 105//7 168//7 106//7
f 176//5 131//5 136//5
f 131//5 176//5 175//5
f 79//5 76//5 78//5
f 80//5 42//5 45//5
f 29//7 36//7 31//7
f 39//7 34//7 38//7
f 78//5 76//5 74//5
f 106//7 107//7 104//7
f 6//7 2//7 33//7
f 134//5 135//5 132//5
f 40//7 38//7 34//7
f 77//5 74//5 75//5
f 113//5 134//5 133//5
f 37//7 40//7 35//7
f 86//7 82//7 103//7
f 69//5 71//5 73//5
f 136//5 131//5 132//5
f 108//7 103//7 104//7
f 79//5 73//5 76//5
f 80//5 75//5 42//5
f 29//7 37//7 36//7
f 39//7 33//7 34//7
usemtl TieInside_NoAO
f 62//7 58//7 63//7
f 28//5 12//5 22//5
f 124//7 121//7 120//7
f 98//5 89//5 99//5
f 164//5 90//5 98//5
f 90//5 164//5 161//5
f 171//7 120//7 170//7
f 120//7 171//7 124//7
f 62//7 52//7 58//7
f 28//5 13//5 12//5
f 124//7 123//7 121//7
f 98//5 90//5 89//5
