# Blender 5.0.0
# www.blender.org
mtllib support_bank_third.mtl
o Support_Bank_Third
v 0.538484 -0.234757 0.015395
v 0.538484 -0.246303 0.018282
v 0.538484 -0.317500 0.015395
v 0.538484 -0.234757 0.038485
v 0.538484 -0.246303 0.038485
v 0.538484 -0.305954 0.018282
v 0.538484 -0.317500 0.038485
v 0.538484 -0.305954 0.038485
v -0.499999 -0.234757 0.015395
v -0.538484 -0.234757 0.015395
v -0.499999 -0.234757 0.031249
v 0.437500 -0.234757 0.015395
v -0.437500 -0.234757 0.015395
v 0.437500 -0.234757 0.031249
v 0.499999 -0.234757 0.031249
v 0.499999 -0.234757 0.015395
v -0.437500 -0.234757 0.031249
v -0.538484 -0.234757 0.038485
v 0.499999 -0.317500 0.031249
v 0.437500 -0.317500 0.031249
v -0.437500 -0.317500 0.031249
v 0.437500 -0.317500 0.015395
v -0.538484 -0.317500 0.038485
v -0.499999 -0.317500 0.031249
v -0.538484 -0.317500 0.015395
v -0.499999 -0.317500 0.015395
v 0.499999 -0.317500 0.015395
v -0.437500 -0.317500 0.015395
v -0.538484 -0.305954 0.018282
v -0.538484 -0.305954 0.038485
v -0.538484 -0.246303 0.018282
v -0.538484 -0.246303 0.038485
v 0.437500 -0.246303 0.018282
v -0.499999 -0.246303 0.018282
v 0.499999 -0.246303 0.018282
v -0.437500 -0.246303 0.018282
v -0.499999 -0.305954 0.018282
v 0.437500 -0.305954 0.018282
v -0.437500 -0.305954 0.018282
v 0.500000 -0.305954 0.018282
v 0.538484 -0.234757 -0.038484
v 0.538484 -0.246303 -0.018281
v 0.538484 -0.246303 -0.038484
v 0.538484 -0.234757 -0.015393
v 0.538484 -0.305954 -0.018281
v 0.538484 -0.317500 -0.038484
v 0.538484 -0.305954 -0.038484
v 0.538484 -0.317500 -0.015393
v 0.500000 -0.234757 -0.031248
v 0.437500 -0.234757 -0.031248
v -0.437500 -0.234757 -0.031248
v 0.437500 -0.234757 -0.015393
v -0.538484 -0.234757 -0.038484
v -0.499999 -0.234757 -0.031248
v -0.538484 -0.234757 -0.015393
v -0.499999 -0.234757 -0.015393
v 0.500000 -0.234757 -0.015393
v -0.437500 -0.234757 -0.015393
v -0.499999 -0.317500 -0.015393
v -0.538484 -0.317500 -0.015393
v -0.499999 -0.317500 -0.031248
v 0.437500 -0.317500 -0.015393
v -0.437500 -0.317500 -0.015393
v 0.437500 -0.317500 -0.031248
v 0.500000 -0.317500 -0.031248
v 0.500000 -0.317500 -0.015393
v -0.437500 -0.317500 -0.031248
v -0.538484 -0.317500 -0.038484
v -0.538484 -0.305954 -0.018281
v -0.538484 -0.305954 -0.038484
v -0.538484 -0.246303 -0.018281
v -0.538484 -0.246303 -0.038484
v -0.499999 -0.246303 -0.018282
v 0.437500 -0.246303 -0.018281
v -0.437500 -0.246303 -0.018281
v 0.499999 -0.246303 -0.018282
v -0.453125 -0.138545 -0.015624
v 0.437500 -0.305954 -0.018282
v -0.484375 -0.138545 -0.015624
v -0.484375 -0.138545 0.015625
v -0.499999 -0.305954 -0.018282
v -0.453125 -0.138545 0.015625
v 0.499999 -0.305954 -0.018281
v -0.437500 -0.305954 -0.018281
v 0.538724 0.005805 0.015395
v 0.541712 -0.005347 0.018282
v 0.560139 -0.074118 0.015395
v 0.538724 0.005805 0.038485
v 0.541712 -0.005347 0.038485
v 0.557151 -0.062966 0.018282
v 0.560139 -0.074118 0.038485
v 0.557151 -0.062966 0.038485
v 0.437500 -0.021318 0.015395
v -0.359069 -0.234757 0.015395
v 0.437500 -0.021318 0.031249
v 0.499999 -0.004571 0.031249
v 0.499999 -0.004571 0.015395
v -0.359069 -0.234757 0.038485
v 0.499999 -0.090232 0.031249
v 0.437500 -0.106979 0.031249
v -0.039376 -0.234757 0.038485
v -0.039376 -0.234757 0.015395
v 0.437500 -0.106979 0.015395
v 0.499999 -0.090232 0.015395
v -0.314460 -0.234757 0.038485
v -0.083985 -0.234757 0.038485
v 0.437500 -0.033270 0.018282
v -0.314460 -0.234757 0.018282
v 0.499999 -0.016524 0.018282
v 0.437500 -0.095026 0.018282
v -0.083985 -0.234757 0.018282
v 0.499999 -0.078279 0.018282
v 0.538724 0.005805 -0.038484
v 0.541712 -0.005347 -0.018281
v 0.541712 -0.005347 -0.038484
v 0.538724 0.005805 -0.015393
v 0.557151 -0.062966 -0.018281
v 0.560139 -0.074118 -0.038484
v 0.557151 -0.062966 -0.038484
v 0.560139 -0.074118 -0.015393
v 0.499999 -0.004571 -0.031248
v 0.437500 -0.021318 -0.031248
v -0.359069 -0.234757 -0.038484
v 0.437500 -0.021318 -0.015393
v -0.359069 -0.234757 -0.015393
v 0.499999 -0.004571 -0.015393
v 0.437500 -0.106979 -0.015393
v -0.039376 -0.234757 -0.015393
v 0.437500 -0.106979 -0.031248
v 0.499999 -0.090232 -0.031248
v 0.499999 -0.090232 -0.015393
v -0.039376 -0.234757 -0.038484
v -0.314460 -0.234757 -0.038484
v -0.083985 -0.234757 -0.038484
v 0.437500 -0.033270 -0.018281
v -0.314460 -0.234757 -0.018281
v 0.484375 0.092364 0.015625
v 0.499999 -0.016524 -0.018282
v 0.484375 0.092364 -0.015624
v 0.499999 -0.078279 -0.018282
v 0.453125 0.092364 0.015625
v -0.083985 -0.234757 -0.018281
v 0.437500 -0.095026 -0.018281
v 0.453125 0.092364 -0.015624
v 0.173792 -0.045163 0.015395
v 0.206911 -0.168765 -0.015393
v 0.173792 -0.045163 -0.015393
v 0.206911 -0.168765 0.015395
v 0.167472 -0.046856 -0.015393
v 0.167472 -0.046856 0.015395
v 0.177915 -0.176534 0.015395
v 0.177915 -0.176534 -0.015393
v 0.150524 -0.074307 -0.015393
v 0.150524 -0.074307 0.015395
v 0.173200 -0.068231 -0.015393
v 0.173200 -0.068231 0.015395
v -0.173034 -0.234757 0.015395
v -0.197199 -0.144570 -0.015393
v -0.173034 -0.234757 -0.015393
v -0.197199 -0.144570 0.015395
v -0.190880 -0.142877 0.015395
v -0.190880 -0.142877 -0.015393
v -0.162477 -0.158175 0.015395
v -0.141957 -0.234757 -0.015393
v -0.162477 -0.158175 -0.015393
v -0.141957 -0.234757 0.015395
v -0.185152 -0.164252 -0.015393
v -0.185152 -0.164252 0.015395
v -0.437500 -0.138545 -0.031248
v -0.437500 -0.138545 0.031249
v -0.437500 -0.331703 -0.031248
v -0.437500 -0.331703 0.031249
v -0.499999 -0.138545 -0.031248
v -0.499999 -0.138545 0.031249
v -0.499999 -0.331703 0.031249
v -0.499999 -0.331703 -0.031248
v 0.499999 0.092364 -0.031248
v 0.499999 0.092364 0.031249
v 0.500000 -0.331703 -0.031248
v 0.499999 -0.331703 0.031249
v 0.437500 0.092364 -0.031248
v 0.437500 0.092364 0.031249
v 0.437500 -0.331703 0.031249
v 0.437500 -0.331703 -0.031248
vn 1.0000 -0.0000 -0.0000
vn -0.0000 -0.0000 -1.0000
vn -1.0000 -0.0000 -0.0000
vn -0.0000 -1.0000 -0.0000
vn -0.2588 0.9659 -0.0000
vn 0.9659 0.2588 -0.0000
vn -0.0000 -0.0000 1.0000
vn 0.2588 -0.9659 -0.0000
vn -0.9659 -0.2588 -0.0000
vn -0.0000 1.0000 -0.0000
vn 0.9659 0.2588 -0.0001
vn 0.2588 -0.9659 0.0001
vn 0.2588 -0.9659 -0.0001
s 1
usemtl Remap2_NoAO_Wood
f 169//1 58//1 51//1
f 174//3 56//3 9//3
f 13//1 170//1 17//1
f 63//1 171//1 67//1
f 28//1 171//1 63//1
f 172//1 28//1 21//1
f 28//1 172//1 171//1
f 184//4 180//4 183//4
f 176//3 59//3 61//3
f 127//3 50//3 52//3
f 176//3 26//3 59//3
f 175//3 26//3 176//3
f 26//3 175//3 24//3
f 56//3 173//3 54//3
f 174//3 9//3 11//3
f 57//1 104//1 16//1
f 177//1 126//1 121//1
f 63//1 13//1 28//1
f 13//1 169//1 170//1
f 97//1 178//1 96//1
f 66//1 179//1 65//1
f 184//2 65//2 179//2
f 27//1 179//1 66//1
f 180//1 27//1 19//1
f 27//1 180//1 179//1
f 15//1 104//1 99//1
f 184//3 62//3 64//3
f 184//3 22//3 62//3
f 183//3 22//3 184//3
f 22//3 183//3 20//3
f 103//3 52//3 12//3
f 124//3 181//3 122//3
f 57//1 130//1 131//1
f 178//1 126//1 177//1
f 182//3 93//3 95//3
f 15//7 100//7 14//7
f 22//3 52//3 62//3
f 121//2 181//2 177//2
f 27//1 57//1 16//1
f 49//2 129//2 130//2
f 17//7 174//7 11//7
f 97//1 131//1 126//1
f 180//7 20//7 183//7
f 172//7 24//7 175//7
f 124//3 103//3 93//3
f 176//2 67//2 171//2
f 182//7 96//7 178//7
f 56//3 26//3 9//3
f 182//3 124//3 93//3
f 14//3 103//3 12//3
f 54//2 169//2 51//2
f 176//4 172//4 175//4
f 174//3 173//3 56//3
f 184//4 179//4 180//4
f 127//3 129//3 50//3
f 57//1 131//1 104//1
f 63//1 58//1 13//1
f 13//1 58//1 169//1
f 184//2 64//2 65//2
f 15//1 16//1 104//1
f 103//3 127//3 52//3
f 57//1 49//1 130//1
f 178//1 97//1 126//1
f 15//7 99//7 100//7
f 22//3 12//3 52//3
f 121//2 122//2 181//2
f 27//1 66//1 57//1
f 49//2 50//2 129//2
f 17//7 170//7 174//7
f 97//1 104//1 131//1
f 180//7 19//7 20//7
f 172//7 21//7 24//7
f 124//3 127//3 103//3
f 176//2 61//2 67//2
f 182//7 95//7 96//7
f 56//3 59//3 26//3
f 182//3 181//3 124//3
f 14//3 100//3 103//3
f 54//2 173//2 169//2
f 176//4 171//4 172//4
usemtl Remap2_NoAO_DarkEdge_Wood
f 170//10 80//10 174//10
f 173//10 77//10 169//10
f 169//10 82//10 170//10
f 174//10 79//10 173//10
f 181//10 139//10 177//10
f 182//10 144//10 181//10
f 177//10 137//10 178//10
f 178//10 141//10 182//10
f 170//10 82//10 80//10
f 173//10 79//10 77//10
f 169//10 77//10 82//10
f 174//10 80//10 79//10
f 181//10 144//10 139//10
f 182//10 141//10 144//10
f 177//10 139//10 137//10
f 178//10 137//10 141//10
usemtl Remap2_NoAO_DarkEdge_Top
f 139//10 141//10 137//10
f 82//10 79//10 80//10
f 139//10 144//10 141//10
f 82//10 77//10 79//10
usemtl Tie_NoAO
f 150//5 147//5 149//5
f 148//6 147//6 145//6
f 5//7 18//7 32//7
f 64//4 63//4 67//4
f 48//7 57//7 66//7
f 152//8 148//8 151//8
f 150//9 155//9 156//9
f 154//9 152//9 151//9
f 1//1 2//1 3//1
f 88//6 86//6 85//6
f 6//1 3//1 2//1
f 4//1 2//1 1//1
f 61//4 60//4 68//4
f 25//4 24//4 23//4
f 14//10 4//10 15//10
f 14//10 17//10 4//10
f 18//10 17//10 11//10
f 17//10 18//10 4//10
f 15//10 1//10 16//10
f 7//4 20//4 19//4
f 58//10 50//10 51//10
f 7//4 21//4 20//4
f 23//4 21//4 7//4
f 21//4 23//4 24//4
f 49//10 44//10 41//10
f 25//3 29//3 10//3
f 91//6 90//11 92//6
f 31//3 10//3 29//3
f 69//3 68//3 60//3
f 68//2 47//2 46//2
f 5//4 35//4 2//4
f 5//4 33//4 35//4
f 5//4 36//4 33//4
f 32//4 36//4 5//4
f 36//4 32//4 34//4
f 31//4 34//4 32//4
f 6//10 40//10 8//10
f 38//10 8//10 40//10
f 38//10 39//10 8//10
f 30//10 39//10 37//10
f 39//10 30//10 8//10
f 30//10 37//10 29//10
f 45//1 46//1 47//1
f 42//1 44//1 45//1
f 7//1 6//1 8//1
f 48//1 45//1 44//1
f 65//4 48//4 66//4
f 41//10 50//10 49//10
f 27//2 1//2 3//2
f 41//10 51//10 50//10
f 53//10 51//10 41//10
f 51//10 53//10 54//10
f 11//10 10//10 18//10
f 19//4 3//4 7//4
f 28//4 20//4 21//4
f 117//6 118//6 119//6
f 64//4 46//4 65//4
f 64//4 67//4 46//4
f 68//4 67//4 61//4
f 67//4 68//4 46//4
f 42//1 41//1 44//1
f 69//3 60//3 71//3
f 18//3 31//3 32//3
f 55//3 71//3 60//3
f 17//10 12//10 13//10
f 7//7 30//7 23//7
f 42//4 76//4 43//4
f 74//4 43//4 76//4
f 74//4 75//4 43//4
f 72//4 75//4 73//4
f 75//4 72//4 43//4
f 72//4 73//4 71//4
f 47//10 83//10 45//10
f 47//10 78//10 83//10
f 47//10 84//10 78//10
f 70//10 84//10 47//10
f 84//10 70//10 81//10
f 69//10 81//10 70//10
f 85//6 86//6 87//6
f 114//11 113//6 116//6
f 90//11 87//6 86//6
f 71//3 53//3 72//3
f 125//5 122//5 123//5
f 55//10 54//10 53//10
f 95//5 88//5 96//5
f 95//5 98//5 88//5
f 130//12 120//8 131//8
f 91//8 100//8 99//13
f 101//8 100//8 91//8
f 129//8 128//8 132//8
f 105//7 88//7 98//7
f 88//7 105//7 89//7
f 101//7 92//7 106//7
f 92//7 101//7 91//7
f 89//8 109//8 86//8
f 89//8 107//8 109//8
f 105//8 107//8 89//8
f 107//8 105//8 108//8
f 90//5 112//5 92//5
f 110//5 92//5 112//5
f 106//5 110//5 111//5
f 110//5 106//5 92//5
f 126//7 120//7 116//7
f 114//11 116//6 117//6
f 23//3 29//3 25//3
f 120//6 117//6 116//6
f 96//5 85//5 97//5
f 113//5 122//5 121//5
f 123//5 122//5 113//5
f 102//8 100//8 101//8
f 152//2 155//2 146//2
f 121//5 116//5 113//5
f 129//8 118//8 130//12
f 129//8 132//8 118//8
f 87//2 97//2 85//2
f 133//2 113//2 115//2
f 113//2 133//2 123//2
f 132//2 119//2 118//2
f 119//2 132//2 134//2
f 114//8 138//8 115//8
f 135//8 115//8 138//8
f 133//8 135//8 136//8
f 135//8 133//8 115//8
f 119//5 140//5 117//5
f 119//5 143//5 140//5
f 134//5 143//5 119//5
f 142//5 143//5 134//5
f 160//9 159//9 157//9
f 154//5 155//5 153//5
f 147//2 155//2 149//2
f 146//2 155//2 147//2
f 151//7 156//7 154//7
f 156//7 145//7 150//7
f 156//7 148//7 145//7
f 108//4 98//4 94//4
f 72//2 41//2 43//2
f 168//5 165//5 167//5
f 59//7 55//7 60//7
f 25//2 9//2 26//2
f 157//7 163//7 168//7
f 167//2 158//2 162//2
f 167//2 159//2 158//2
f 160//7 168//7 161//7
f 168//7 160//7 157//7
f 99//13 87//8 91//8
f 128//4 136//4 142//4
f 125//4 136//4 128//4
f 111//4 101//4 106//4
f 123//4 136//4 125//4
f 142//4 132//4 128//4
f 108//4 102//4 111//4
f 108//4 94//4 102//4
f 166//6 165//6 163//6
f 168//6 162//6 161//6
f 159//2 165//2 164//2
f 160//5 162//5 158//5
f 95//5 94//5 98//5
f 159//4 166//4 157//4
f 150//5 145//5 147//5
f 148//6 146//6 147//6
f 5//7 4//7 18//7
f 64//4 62//4 63//4
f 48//7 44//7 57//7
f 152//8 146//8 148//8
f 150//9 149//9 155//9
f 154//9 153//9 152//9
f 88//6 89//6 86//6
f 4//1 5//1 2//1
f 61//4 59//4 60//4
f 25//4 26//4 24//4
f 15//10 4//10 1//10
f 58//10 52//10 50//10
f 49//10 57//10 44//10
f 91//6 87//6 90//11
f 69//3 70//3 68//3
f 68//2 70//2 47//2
f 45//1 48//1 46//1
f 7//1 3//1 6//1
f 65//4 46//4 48//4
f 27//2 16//2 1//2
f 11//10 9//10 10//10
f 19//4 27//4 3//4
f 28//4 22//4 20//4
f 117//6 120//6 118//6
f 42//1 43//1 41//1
f 18//3 10//3 31//3
f 17//10 14//10 12//10
f 7//7 8//7 30//7
f 114//11 115//6 113//6
f 71//3 55//3 53//3
f 125//5 124//5 122//5
f 55//10 56//10 54//10
f 130//12 118//8 120//8
f 129//8 127//8 128//8
f 126//7 131//7 120//7
f 23//3 30//3 29//3
f 96//5 88//5 85//5
f 102//8 103//8 100//8
f 152//2 153//2 155//2
f 121//5 126//5 116//5
f 87//2 104//2 97//2
f 160//9 158//9 159//9
f 154//5 156//5 155//5
f 151//7 148//7 156//7
f 108//4 105//4 98//4
f 72//2 53//2 41//2
f 168//5 163//5 165//5
f 59//7 56//7 55//7
f 25//2 10//2 9//2
f 157//7 166//7 163//7
f 99//13 104//8 87//8
f 111//4 102//4 101//4
f 123//4 133//4 136//4
f 142//4 134//4 132//4
f 166//6 164//6 165//6
f 168//6 167//6 162//6
f 159//2 167//2 165//2
f 160//5 161//5 162//5
f 95//5 93//5 94//5
f 159//4 164//4 166//4
usemtl TieDark_NoAO
f 84//2 74//2 78//2
f 140//2 135//2 138//2
f 40//7 2//7 35//7
f 117//2 138//2 114//2
f 69//2 73//2 81//2
f 78//2 76//2 83//2
f 38//7 35//7 33//7
f 29//7 34//7 31//7
f 37//7 36//7 34//7
f 111//7 107//7 108//7
f 107//7 111//7 110//7
f 109//7 90//7 86//7
f 142//2 135//2 143//2
f 135//2 142//2 136//2
f 83//2 42//2 45//2
f 107//7 112//7 109//7
f 39//7 33//7 36//7
f 81//2 75//2 84//2
f 84//2 75//2 74//2
f 140//2 143//2 135//2
f 40//7 6//7 2//7
f 117//2 140//2 138//2
f 69//2 71//2 73//2
f 78//2 74//2 76//2
f 38//7 40//7 35//7
f 29//7 37//7 34//7
f 37//7 39//7 36//7
f 109//7 112//7 90//7
f 83//2 76//2 42//2
f 107//7 110//7 112//7
f 39//7 38//7 33//7
f 81//2 73//2 75//2
usemtl TieInside_NoAO
f 28//2 12//2 22//2
f 62//7 58//7 63//7
f 102//2 93//2 103//2
f 93//2 102//2 94//2
f 128//7 124//7 125//7
f 124//7 128//7 127//7
f 28//2 13//2 12//2
f 62//7 52//7 58//7
