# Blender 5.0.0
# www.blender.org
mtllib track.mtl
o Track
v -0.134697 -0.029827 -0.062500
v -0.161636 -0.029827 -0.062500
v -0.134697 -0.029827 -0.125000
v -0.134697 -0.029827 -0.437500
v -0.161636 -0.029827 -0.437500
v -0.134697 -0.002888 -0.437500
v -0.134697 -0.029827 -0.375000
v -0.142394 -0.002888 -0.250000
v -0.142394 -0.002888 -0.187500
v -0.134697 -0.002888 -0.187500
v -0.134697 -0.079858 -0.250000
v -0.134697 -0.079858 -0.187500
v -0.134697 -0.095252 -0.187500
v -0.215515 -0.015394 -0.187500
v -0.215515 -0.000001 -0.187500
v -0.215515 -0.000001 -0.250000
v -0.134697 -0.002888 -0.250000
v -0.134697 -0.029827 -0.187500
v -0.192424 -0.015394 -0.187500
v -0.215515 -0.015394 -0.250000
v -0.161636 -0.079858 -0.187500
v -0.192424 -0.079858 -0.250000
v -0.192424 -0.079858 -0.187500
v -0.219364 -0.095252 -0.187500
v -0.219364 -0.079858 -0.187500
v -0.219364 -0.079858 -0.250000
v -0.161636 -0.029827 -0.250000
v -0.161636 -0.029827 -0.187500
v -0.219364 -0.095252 -0.250000
v -0.142394 -0.000000 -0.187500
v -0.142394 -0.000000 -0.250000
v -0.142394 -0.000000 -0.062500
v -0.142394 -0.000000 -0.125000
v -0.215515 -0.000001 -0.062500
v -0.192424 -0.015394 -0.062500
v -0.215515 -0.015394 -0.062500
v -0.215515 -0.015394 -0.125000
v -0.142394 -0.002888 -0.125000
v -0.219364 -0.079858 -0.125000
v -0.192424 -0.079858 -0.125000
v -0.161636 -0.029827 -0.125000
v -0.161636 -0.079858 -0.125000
v -0.219364 -0.095252 -0.125000
v -0.192424 -0.015394 -0.125000
v -0.134697 -0.079858 -0.125000
v -0.134697 -0.095252 -0.125000
v -0.134697 -0.002888 -0.125000
v -0.215515 -0.000001 -0.125000
v -0.142394 -0.002888 -0.062500
v -0.192424 -0.079858 -0.062500
v -0.134697 -0.095252 -0.250000
v -0.134697 -0.029827 -0.250000
v -0.192424 -0.015394 -0.250000
v -0.161636 -0.079858 -0.250000
v -0.219364 -0.079858 -0.062500
v -0.219364 -0.095252 -0.062500
v -0.134697 -0.002888 -0.062500
v -0.161636 -0.079858 -0.062500
v -0.134697 -0.079858 -0.062500
v -0.134697 -0.095252 -0.062500
v -0.134697 -0.002888 -0.312500
v -0.142394 -0.002888 -0.312500
v -0.134697 -0.095252 -0.312500
v -0.134697 -0.079858 -0.312500
v -0.215515 -0.015394 -0.312500
v -0.215515 -0.000001 -0.312500
v -0.134697 -0.029827 -0.312500
v -0.192424 -0.015394 -0.312500
v -0.161636 -0.079858 -0.312500
v -0.192424 -0.079858 -0.312500
v -0.219364 -0.095252 -0.312500
v -0.219364 -0.079858 -0.312500
v -0.161636 -0.029827 -0.312500
v -0.142394 -0.000000 -0.312500
v -0.142394 -0.000000 -0.437500
v -0.142394 -0.000000 -0.375000
v -0.192424 -0.015394 -0.437500
v -0.192424 -0.079858 -0.437500
v -0.215515 -0.015394 -0.375000
v -0.215515 -0.015394 -0.437500
v -0.142394 -0.002888 -0.375000
v -0.219364 -0.079858 -0.375000
v -0.192424 -0.079858 -0.375000
v -0.161636 -0.029827 -0.375000
v -0.161636 -0.079858 -0.375000
v -0.219364 -0.095252 -0.375000
v -0.192424 -0.015394 -0.375000
v -0.134697 -0.079858 -0.375000
v -0.134697 -0.095252 -0.375000
v -0.134697 -0.002888 -0.375000
v -0.215515 -0.000001 -0.375000
v -0.142394 -0.002888 -0.437500
v -0.215515 -0.000001 -0.437500
v -0.219364 -0.079858 -0.437500
v -0.219364 -0.095252 -0.437500
v -0.161636 -0.079858 -0.437500
v -0.134697 -0.079858 -0.437500
v -0.134697 -0.095252 -0.437500
v -0.142394 -0.002888 0.000000
v -0.134697 -0.029827 0.000000
v -0.134697 -0.079858 0.000000
v -0.219364 -0.079858 0.000000
v -0.134697 -0.002888 0.000000
v -0.219364 -0.095252 0.000000
v -0.142394 -0.002888 -0.500000
v -0.142394 -0.000000 -0.500000
v -0.134697 -0.029827 -0.500000
v -0.134697 -0.079858 -0.500000
v -0.161636 -0.079858 -0.500000
v -0.219364 -0.079858 -0.500000
v -0.219364 -0.095252 -0.500000
v -0.134697 -0.002888 -0.500000
v -0.134697 -0.095252 -0.500000
v -0.142394 -0.000000 0.000000
v -0.161636 -0.029827 0.000000
v -0.161636 -0.079858 0.000000
v -0.134697 -0.095252 0.000000
v -0.192424 -0.079858 0.000000
v -0.161636 -0.029827 -0.500000
v -0.192424 -0.079858 -0.500000
v -0.215515 -0.015394 0.000000
v -0.192424 -0.015394 0.000000
v -0.215515 -0.000000 0.000000
v -0.215515 -0.015394 -0.500000
v -0.192424 -0.015394 -0.500000
v -0.215515 -0.000000 -0.500000
v -0.230909 -0.095252 -0.238455
v -0.230909 -0.098138 -0.248557
v -0.230909 -0.098138 -0.238455
v -0.230909 -0.098138 -0.251443
v -0.230909 -0.118342 -0.248557
v -0.230909 -0.095252 -0.261545
v -0.230909 -0.098138 -0.261545
v -0.230909 -0.118342 -0.251443
v -0.230909 -0.095252 -0.248557
v -0.230909 -0.095252 -0.251443
v 0.000000 -0.095252 -0.238455
v 0.000000 -0.095252 -0.261545
v 0.000000 -0.098138 -0.248557
v 0.000000 -0.098138 -0.238455
v 0.000000 -0.098138 -0.261545
v 0.000000 -0.098138 -0.251443
v 0.000000 -0.118342 -0.248557
v 0.000000 -0.118342 -0.251443
v 0.000000 -0.095252 -0.248557
v 0.000000 -0.095252 -0.251443
v 0.134697 -0.029827 -0.062500
v 0.161636 -0.029827 -0.062500
v 0.134697 -0.029827 -0.125000
v 0.134697 -0.029827 -0.437500
v 0.161636 -0.029827 -0.437500
v 0.134697 -0.002888 -0.437500
v 0.134697 -0.029827 -0.375000
v 0.142394 -0.002888 -0.250000
v 0.142394 -0.002888 -0.187500
v 0.134697 -0.002888 -0.187500
v 0.134697 -0.079858 -0.250000
v 0.134697 -0.079858 -0.187500
v 0.134697 -0.095252 -0.187500
v 0.215515 -0.015394 -0.187500
v 0.215515 -0.000001 -0.187500
v 0.215515 -0.000001 -0.250000
v 0.134697 -0.002888 -0.250000
v 0.134697 -0.029827 -0.187500
v 0.192424 -0.015394 -0.187500
v 0.215515 -0.015394 -0.250000
v 0.161636 -0.079858 -0.187500
v 0.192424 -0.079858 -0.250000
v 0.192424 -0.079858 -0.187500
v 0.219364 -0.095252 -0.187500
v 0.219364 -0.079858 -0.187500
v 0.219364 -0.079858 -0.250000
v 0.161636 -0.029827 -0.250000
v 0.161636 -0.029827 -0.187500
v 0.219364 -0.095252 -0.250000
v 0.142394 -0.000000 -0.187500
v 0.142394 -0.000000 -0.250000
v 0.142394 -0.000000 -0.062500
v 0.142394 -0.000000 -0.125000
v 0.215515 -0.000001 -0.062500
v 0.192424 -0.015394 -0.062500
v 0.215515 -0.015394 -0.062500
v 0.215515 -0.015394 -0.125000
v 0.142394 -0.002888 -0.125000
v 0.219364 -0.079858 -0.125000
v 0.192424 -0.079858 -0.125000
v 0.161636 -0.029827 -0.125000
v 0.161636 -0.079858 -0.125000
v 0.219364 -0.095252 -0.125000
v 0.192424 -0.015394 -0.125000
v 0.134697 -0.079858 -0.125000
v 0.134697 -0.095252 -0.125000
v 0.134697 -0.002888 -0.125000
v 0.215515 -0.000001 -0.125000
v 0.142394 -0.002888 -0.062500
v 0.192424 -0.079858 -0.062500
v 0.134697 -0.095252 -0.250000
v 0.134697 -0.029827 -0.250000
v 0.192424 -0.015394 -0.250000
v 0.161636 -0.079858 -0.250000
v 0.219364 -0.079858 -0.062500
v 0.219364 -0.095252 -0.062500
v 0.134697 -0.002888 -0.062500
v 0.161636 -0.079858 -0.062500
v 0.134697 -0.079858 -0.062500
v 0.134697 -0.095252 -0.062500
v 0.134697 -0.002888 -0.312500
v 0.142394 -0.002888 -0.312500
v 0.134697 -0.095252 -0.312500
v 0.134697 -0.079858 -0.312500
v 0.215515 -0.015394 -0.312500
v 0.215515 -0.000001 -0.312500
v 0.134697 -0.029827 -0.312500
v 0.192424 -0.015394 -0.312500
v 0.161636 -0.079858 -0.312500
v 0.192424 -0.079858 -0.312500
v 0.219364 -0.095252 -0.312500
v 0.219364 -0.079858 -0.312500
v 0.161636 -0.029827 -0.312500
v 0.142394 -0.000000 -0.312500
v 0.142394 -0.000000 -0.437500
v 0.142394 -0.000000 -0.375000
v 0.192424 -0.015394 -0.437500
v 0.192424 -0.079858 -0.437500
v 0.215515 -0.015394 -0.375000
v 0.215515 -0.015394 -0.437500
v 0.142394 -0.002888 -0.375000
v 0.219364 -0.079858 -0.375000
v 0.192424 -0.079858 -0.375000
v 0.161636 -0.029827 -0.375000
v 0.161636 -0.079858 -0.375000
v 0.219364 -0.095252 -0.375000
v 0.192424 -0.015394 -0.375000
v 0.134697 -0.079858 -0.375000
v 0.134697 -0.095252 -0.375000
v 0.134697 -0.002888 -0.375000
v 0.215515 -0.000001 -0.375000
v 0.142394 -0.002888 -0.437500
v 0.215515 -0.000001 -0.437500
v 0.219364 -0.079858 -0.437500
v 0.219364 -0.095252 -0.437500
v 0.161636 -0.079858 -0.437500
v 0.134697 -0.079858 -0.437500
v 0.134697 -0.095252 -0.437500
v 0.142394 -0.002888 0.000000
v 0.134697 -0.029827 0.000000
v 0.134697 -0.079858 0.000000
v 0.219364 -0.079858 0.000000
v 0.134697 -0.002888 0.000000
v 0.219364 -0.095252 0.000000
v 0.142394 -0.002888 -0.500000
v 0.142394 -0.000000 -0.500000
v 0.134697 -0.029827 -0.500000
v 0.134697 -0.079858 -0.500000
v 0.161636 -0.079858 -0.500000
v 0.219364 -0.079858 -0.500000
v 0.219364 -0.095252 -0.500000
v 0.134697 -0.002888 -0.500000
v 0.134697 -0.095252 -0.500000
v 0.142394 -0.000000 0.000000
v 0.161636 -0.029827 0.000000
v 0.161636 -0.079858 0.000000
v 0.134697 -0.095252 0.000000
v 0.192424 -0.079858 0.000000
v 0.161636 -0.029827 -0.500000
v 0.192424 -0.079858 -0.500000
v 0.215515 -0.015394 0.000000
v 0.192424 -0.015394 0.000000
v 0.215515 -0.000000 0.000000
v 0.215515 -0.015394 -0.500000
v 0.192424 -0.015394 -0.500000
v 0.215515 -0.000000 -0.500000
v 0.230909 -0.095252 -0.238455
v 0.230909 -0.098138 -0.248557
v 0.230909 -0.098138 -0.238455
v 0.230909 -0.098138 -0.251443
v 0.230909 -0.118342 -0.248557
v 0.230909 -0.095252 -0.261545
v 0.230909 -0.098138 -0.261545
v 0.230909 -0.118342 -0.251443
v 0.230909 -0.095252 -0.248557
v 0.230909 -0.095252 -0.251443
vn -0.0000 1.0000 -0.0000
vn -1.0000 -0.0000 -0.0000
vn 1.0000 -0.0000 -0.0000
vn -0.0000 -1.0000 -0.0000
vn -0.0000 -0.0000 -1.0000
vn 1.0000 -0.0001 -0.0000
vn -0.0000 -0.0000 1.0000
vn -0.0000 -0.0001 1.0000
vn -0.0000 -0.0001 -1.0000
vn -1.0000 -0.0001 -0.0000
s 1
usemtl Remap1_Edge_Rail_NoAO
f 103//1 49//1 99//1
f 110//2 95//2 94//2
f 57//3 3//3 47//3
f 122//4 36//4 35//4
f 102//2 56//2 104//2
f 75//1 91//1 76//1
f 100//3 57//3 103//3
f 63//3 88//3 64//3
f 54//1 64//1 69//1
f 52//4 73//4 67//4
f 19//4 37//4 14//4
f 18//4 41//4 28//4
f 118//2 35//2 50//2
f 33//6 9//6 30//6
f 13//4 29//4 51//4
f 117//4 56//4 60//4
f 15//2 37//2 48//2
f 15//1 33//1 30//1
f 81//1 6//1 92//1
f 120//1 94//1 78//1
f 121//2 34//2 36//2
f 2//3 42//3 41//3
f 96//1 88//1 97//1
f 116//3 2//3 115//3
f 35//2 40//2 50//2
f 93//2 124//2 80//2
f 48//2 36//2 34//2
f 55//1 40//1 39//1
f 116//1 59//1 58//1
f 118//1 55//1 102//1
f 94//1 83//1 78//1
f 114//1 34//1 123//1
f 97//3 113//3 108//3
f 106//1 93//1 75//1
f 51//3 64//3 11//3
f 17//1 62//1 8//1
f 26//1 70//1 72//1
f 15//1 31//1 16//1
f 80//2 91//2 93//2
f 76//6 62//6 81//6
f 12//1 42//1 45//1
f 25//1 40//1 23//1
f 19//2 40//2 44//2
f 24//2 39//2 25//2
f 21//3 41//3 42//3
f 30//6 8//6 31//6
f 29//4 63//4 51//4
f 112//1 92//1 6//1
f 89//4 95//4 98//4
f 86//2 94//2 95//2
f 119//4 4//4 5//4
f 5//3 85//3 96//3
f 3//4 2//4 41//4
f 105//3 75//6 92//6
f 18//3 47//3 3//3
f 48//1 32//1 33//1
f 76//1 66//1 74//1
f 72//1 83//1 82//1
f 17//1 9//1 10//1
f 80//4 125//4 77//4
f 79//2 66//2 91//2
f 62//1 90//1 81//1
f 97//1 109//1 96//1
f 109//3 5//3 96//3
f 37//4 35//4 36//4
f 83//2 77//2 78//2
f 107//3 6//3 4//3
f 59//3 117//3 60//3
f 77//2 120//2 78//2
f 111//4 98//4 95//4
f 79//4 77//4 87//4
f 60//4 43//4 46//4
f 43//2 55//2 39//2
f 38//1 57//1 47//1
f 76//6 92//6 75//6
f 69//3 84//3 73//3
f 20//2 66//2 65//2
f 53//4 14//4 20//4
f 52//4 28//4 27//4
f 67//4 84//4 7//4
f 29//2 72//2 71//2
f 74//6 8//6 62//6
f 68//4 79//4 87//4
f 66//1 31//1 74//1
f 26//1 23//1 22//1
f 53//2 70//2 22//2
f 68//2 83//2 70//2
f 64//1 85//1 69//1
f 71//2 82//2 86//2
f 115//4 1//4 100//4
f 88//3 98//3 97//3
f 7//4 5//4 4//4
f 45//3 60//3 46//3
f 45//1 58//1 59//1
f 33//6 49//6 38//6
f 67//3 90//3 61//3
f 13//3 45//3 46//3
f 47//1 9//1 38//1
f 52//3 10//3 18//3
f 20//2 15//2 16//2
f 51//3 12//3 13//3
f 53//2 23//2 19//2
f 54//3 73//3 27//3
f 52//3 61//3 17//3
f 54//1 12//1 11//1
f 53//4 65//4 68//4
f 29//2 25//2 26//2
f 71//4 89//4 63//4
f 54//3 28//3 21//3
f 24//4 46//4 43//4
f 4//3 90//3 7//3
f 32//6 99//3 49//6
f 195//1 249//1 245//1
f 241//3 256//3 240//3
f 149//2 203//2 193//2
f 182//4 268//4 181//4
f 202//3 248//3 250//3
f 221//1 237//1 239//1
f 203//2 246//2 249//2
f 234//2 209//2 210//2
f 210//1 200//1 215//1
f 219//4 198//4 213//4
f 183//4 165//4 160//4
f 187//4 164//4 174//4
f 181//3 264//3 196//3
f 155//10 179//10 176//10
f 175//4 159//4 197//4
f 202//4 263//4 206//4
f 161//3 183//3 160//3
f 161//1 179//1 194//1
f 152//1 227//1 238//1
f 240//1 266//1 224//1
f 267//3 180//3 269//3
f 188//2 148//2 187//2
f 234//1 242//1 243//1
f 148//2 262//2 261//2
f 186//3 181//3 196//3
f 239//3 270//3 272//3
f 194//3 182//3 183//3
f 186//1 201//1 185//1
f 205//1 262//1 204//1
f 201//1 264//1 248//1
f 229//1 240//1 224//1
f 180//1 260//1 269//1
f 243//2 259//2 244//2
f 239//1 252//1 221//1
f 210//2 197//2 157//2
f 208//1 163//1 154//1
f 216//1 172//1 218//1
f 177//1 161//1 162//1
f 237//3 226//3 239//3
f 208//10 222//10 227//10
f 188//1 158//1 191//1
f 186//1 171//1 169//1
f 186//3 165//3 190//3
f 185//3 170//3 171//3
f 187//2 167//2 188//2
f 154//10 176//10 177//10
f 209//4 175//4 197//4
f 238//1 258//1 152//1
f 241//4 235//4 244//4
f 240//3 232//3 241//3
f 150//4 265//4 151//4
f 231//2 151//2 242//2
f 148//4 149//4 187//4
f 221//10 251//2 238//10
f 193//2 164//2 149//2
f 178//1 194//1 179//1
f 222//1 212//1 237//1
f 229//1 218//1 228//1
f 155//1 163//1 156//1
f 271//4 226//4 223//4
f 225//3 212//3 211//3
f 208//1 236//1 207//1
f 243//1 255//1 254//1
f 151//2 255//2 242//2
f 181//4 183//4 182//4
f 223//3 229//3 224//3
f 152//2 253//2 150//2
f 263//2 205//2 206//2
f 266//3 223//3 224//3
f 244//4 257//4 241//4
f 223//4 225//4 233//4
f 189//4 206//4 192//4
f 201//3 189//3 185//3
f 203//1 184//1 193//1
f 238//10 222//10 221//10
f 230//2 215//2 219//2
f 212//3 166//3 211//3
f 160//4 199//4 166//4
f 174//4 198//4 173//4
f 230//4 213//4 153//4
f 218//3 175//3 217//3
f 154//10 220//10 208//10
f 225//4 214//4 233//4
f 177//1 212//1 220//1
f 169//1 172//1 168//1
f 216//3 199//3 168//3
f 229//3 214//3 216//3
f 231//1 210//1 215//1
f 228//3 217//3 232//3
f 147//4 261//4 246//4
f 244//2 234//2 243//2
f 153//4 151//4 230//4
f 191//2 206//2 205//2
f 191//1 204//1 188//1
f 195//10 179//10 184//10
f 236//2 213//2 207//2
f 191//2 159//2 192//2
f 193//1 155//1 156//1
f 156//2 198//2 164//2
f 161//3 166//3 162//3
f 158//2 197//2 159//2
f 169//3 199//3 165//3
f 219//2 200//2 173//2
f 207//2 198//2 163//2
f 158//1 200//1 157//1
f 211//4 199//4 214//4
f 171//3 175//3 172//3
f 235//4 217//4 209//4
f 174//2 200//2 167//2
f 192//4 170//4 189//4
f 236//2 150//2 153//2
f 178//10 245//2 260//2
f 103//1 57//1 49//1
f 110//2 111//2 95//2
f 57//3 1//3 3//3
f 122//4 121//4 36//4
f 102//2 55//2 56//2
f 75//1 93//1 91//1
f 100//3 1//3 57//3
f 63//3 89//3 88//3
f 54//1 11//1 64//1
f 52//4 27//4 73//4
f 19//4 44//4 37//4
f 18//4 3//4 41//4
f 118//2 122//2 35//2
f 33//6 38//6 9//6
f 13//4 24//4 29//4
f 117//4 104//4 56//4
f 15//2 14//2 37//2
f 15//1 48//1 33//1
f 81//1 90//1 6//1
f 120//1 110//1 94//1
f 121//2 123//2 34//2
f 2//3 58//3 42//3
f 96//1 85//1 88//1
f 116//3 58//3 2//3
f 35//2 44//2 40//2
f 93//2 126//2 124//2
f 48//2 37//2 36//2
f 55//1 50//1 40//1
f 116//1 101//1 59//1
f 118//1 50//1 55//1
f 94//1 82//1 83//1
f 114//1 32//1 34//1
f 97//3 98//3 113//3
f 106//1 126//1 93//1
f 51//3 63//3 64//3
f 17//1 61//1 62//1
f 26//1 22//1 70//1
f 15//1 30//1 31//1
f 80//2 79//2 91//2
f 76//6 74//6 62//6
f 12//1 21//1 42//1
f 25//1 39//1 40//1
f 19//2 23//2 40//2
f 24//2 43//2 39//2
f 21//3 28//3 41//3
f 30//6 9//6 8//6
f 29//4 71//4 63//4
f 112//1 105//1 92//1
f 89//4 86//4 95//4
f 86//2 82//2 94//2
f 119//4 107//4 4//4
f 5//3 84//3 85//3
f 3//4 1//4 2//4
f 105//3 106//3 75//6
f 18//3 10//3 47//3
f 48//1 34//1 32//1
f 76//1 91//1 66//1
f 72//1 70//1 83//1
f 17//1 8//1 9//1
f 80//4 124//4 125//4
f 79//2 65//2 66//2
f 62//1 61//1 90//1
f 97//1 108//1 109//1
f 109//3 119//3 5//3
f 37//4 44//4 35//4
f 83//2 87//2 77//2
f 107//3 112//3 6//3
f 59//3 101//3 117//3
f 77//2 125//2 120//2
f 111//4 113//4 98//4
f 79//4 80//4 77//4
f 60//4 56//4 43//4
f 43//2 56//2 55//2
f 38//1 49//1 57//1
f 76//6 81//6 92//6
f 69//3 85//3 84//3
f 20//2 16//2 66//2
f 53//4 19//4 14//4
f 52//4 18//4 28//4
f 67//4 73//4 84//4
f 29//2 26//2 72//2
f 74//6 31//6 8//6
f 68//4 65//4 79//4
f 66//1 16//1 31//1
f 26//1 25//1 23//1
f 53//2 68//2 70//2
f 68//2 87//2 83//2
f 64//1 88//1 85//1
f 71//2 72//2 82//2
f 115//4 2//4 1//4
f 88//3 89//3 98//3
f 7//4 84//4 5//4
f 45//3 59//3 60//3
f 45//1 42//1 58//1
f 33//6 32//6 49//6
f 67//3 7//3 90//3
f 13//3 12//3 45//3
f 47//1 10//1 9//1
f 52//3 17//3 10//3
f 20//2 14//2 15//2
f 51//3 11//3 12//3
f 53//2 22//2 23//2
f 54//3 69//3 73//3
f 52//3 67//3 61//3
f 54//1 21//1 12//1
f 53//4 20//4 65//4
f 29//2 24//2 25//2
f 71//4 86//4 89//4
f 54//3 27//3 28//3
f 24//4 13//4 46//4
f 4//3 6//3 90//3
f 32//6 114//3 99//3
f 195//1 203//1 249//1
f 241//3 257//3 256//3
f 149//2 147//2 203//2
f 182//4 267//4 268//4
f 202//3 201//3 248//3
f 221//1 222//1 237//1
f 203//2 147//2 246//2
f 234//2 235//2 209//2
f 210//1 157//1 200//1
f 219//4 173//4 198//4
f 183//4 190//4 165//4
f 187//4 149//4 164//4
f 181//3 268//3 264//3
f 155//10 184//10 179//10
f 175//4 170//4 159//4
f 202//4 250//4 263//4
f 161//3 194//3 183//3
f 161//1 176//1 179//1
f 152//1 236//1 227//1
f 240//1 256//1 266//1
f 267//3 182//3 180//3
f 188//2 204//2 148//2
f 234//1 231//1 242//1
f 148//2 204//2 262//2
f 186//3 190//3 181//3
f 239//3 226//3 270//3
f 194//3 180//3 182//3
f 186//1 196//1 201//1
f 205//1 247//1 262//1
f 201//1 196//1 264//1
f 229//1 228//1 240//1
f 180//1 178//1 260//1
f 243//2 254//2 259//2
f 239//1 272//1 252//1
f 210//2 209//2 197//2
f 208//1 207//1 163//1
f 216//1 168//1 172//1
f 177//1 176//1 161//1
f 237//3 225//3 226//3
f 208//10 220//10 222//10
f 188//1 167//1 158//1
f 186//1 185//1 171//1
f 186//3 169//3 165//3
f 185//3 189//3 170//3
f 187//2 174//2 167//2
f 154//10 155//10 176//10
f 209//4 217//4 175//4
f 238//1 251//1 258//1
f 241//4 232//4 235//4
f 240//3 228//3 232//3
f 150//4 253//4 265//4
f 231//2 230//2 151//2
f 148//4 147//4 149//4
f 221//10 252//2 251//2
f 193//2 156//2 164//2
f 178//1 180//1 194//1
f 222//1 220//1 212//1
f 229//1 216//1 218//1
f 155//1 154//1 163//1
f 271//4 270//4 226//4
f 225//3 237//3 212//3
f 208//1 227//1 236//1
f 243//1 242//1 255//1
f 151//2 265//2 255//2
f 181//4 190//4 183//4
f 223//3 233//3 229//3
f 152//2 258//2 253//2
f 263//2 247//2 205//2
f 266//3 271//3 223//3
f 244//4 259//4 257//4
f 223//4 226//4 225//4
f 189//4 202//4 206//4
f 201//3 202//3 189//3
f 203//1 195//1 184//1
f 238//10 227//10 222//10
f 230//2 231//2 215//2
f 212//3 162//3 166//3
f 160//4 165//4 199//4
f 174//4 164//4 198//4
f 230//4 219//4 213//4
f 218//3 172//3 175//3
f 154//10 177//10 220//10
f 225//4 211//4 214//4
f 177//1 162//1 212//1
f 169//1 171//1 172//1
f 216//3 214//3 199//3
f 229//3 233//3 214//3
f 231//1 234//1 210//1
f 228//3 218//3 217//3
f 147//4 148//4 261//4
f 244//2 235//2 234//2
f 153//4 150//4 151//4
f 191//2 192//2 206//2
f 191//1 205//1 204//1
f 195//10 178//10 179//10
f 236//2 153//2 213//2
f 191//2 158//2 159//2
f 193//1 184//1 155//1
f 156//2 163//2 198//2
f 161//3 160//3 166//3
f 158//2 157//2 197//2
f 169//3 168//3 199//3
f 219//2 215//2 200//2
f 207//2 213//2 198//2
f 158//1 167//1 200//1
f 211//4 166//4 199//4
f 171//3 170//3 175//3
f 235//4 232//4 217//4
f 174//2 173//2 200//2
f 192//4 159//4 170//4
f 236//2 152//2 150//2
f 178//10 195//10 245//2
usemtl Remap1_Rail_NoBleed_NoAO
f 99//7 100//7 103//7
f 107//5 105//5 112//5
f 104//7 118//7 102//7
f 119//5 120//5 125//5
f 122//7 115//7 99//7
f 101//7 116//7 117//7
f 122//7 99//7 114//8
f 117//7 116//7 118//7
f 122//7 114//8 123//7
f 117//7 118//7 104//7
f 123//7 121//7 122//7
f 118//7 115//7 122//7
f 111//5 110//5 120//5
f 125//5 105//5 119//5
f 108//5 113//5 109//5
f 125//5 106//9 105//5
f 113//5 120//5 109//5
f 125//5 126//5 106//9
f 113//5 111//5 120//5
f 126//5 125//5 124//5
f 245//7 246//7 261//7
f 253//5 251//5 265//5
f 250//7 248//7 264//7
f 265//5 266//5 255//5
f 268//7 245//7 261//7
f 247//7 263//7 262//7
f 268//7 260//8 245//7
f 263//7 264//7 262//7
f 268//7 269//7 260//8
f 263//7 250//7 264//7
f 269//7 268//7 267//7
f 264//7 261//7 262//7
f 257//5 266//5 256//5
f 271//5 265//5 251//5
f 254//5 255//5 259//5
f 271//5 251//5 252//9
f 259//5 255//5 266//5
f 271//5 252//9 272//5
f 259//5 266//5 257//5
f 272//5 270//5 271//5
f 99//7 115//7 100//7
f 107//5 119//5 105//5
f 119//5 109//5 120//5
f 118//7 116//7 115//7
f 245//7 249//7 246//7
f 253//5 258//5 251//5
f 265//5 271//5 266//5
f 264//7 268//7 261//7
usemtl Tie_NoAO
f 133//5 138//5 141//5
f 140//4 128//4 139//4
f 142//4 133//4 141//4
f 138//1 136//1 146//1
f 134//2 128//2 130//2
f 134//5 142//5 144//5
f 143//4 134//4 144//4
f 145//1 127//1 137//1
f 146//1 135//1 145//1
f 133//2 136//2 132//2
f 130//2 135//2 136//2
f 127//2 128//2 129//2
f 143//7 128//7 131//7
f 140//7 127//7 129//7
f 138//5 279//5 141//5
f 274//4 140//4 139//4
f 279//4 142//4 141//4
f 282//1 138//1 146//1
f 274//3 280//3 276//3
f 142//5 280//5 144//5
f 280//4 143//4 144//4
f 273//1 145//1 137//1
f 281//1 146//1 145//1
f 282//3 279//3 278//3
f 276//3 281//3 274//3
f 273//3 274//3 281//3
f 274//7 143//7 277//7
f 273//7 140//7 275//7
f 133//5 132//5 138//5
f 140//4 129//4 128//4
f 142//4 130//4 133//4
f 138//1 132//1 136//1
f 134//2 131//2 128//2
f 134//5 130//5 142//5
f 143//4 131//4 134//4
f 145//1 135//1 127//1
f 146//1 136//1 135//1
f 133//2 130//2 136//2
f 130//2 128//2 135//2
f 127//2 135//2 128//2
f 143//7 139//7 128//7
f 140//7 137//7 127//7
f 138//5 278//5 279//5
f 274//4 275//4 140//4
f 279//4 276//4 142//4
f 282//1 278//1 138//1
f 274//3 277//3 280//3
f 142//5 276//5 280//5
f 280//4 277//4 143//4
f 273//1 281//1 145//1
f 281//1 282//1 146//1
f 282//3 276//3 279//3
f 276//3 282//3 281//3
f 273//3 275//3 274//3
f 274//7 139//7 143//7
f 273//7 137//7 140//7
